<ttFont>
          <CharString index="0">
            -11 hmoveto
            496 141 -159 hlineto
            80 295 rlineto
            430 hlineto
            78 -295 rlineto
            -156 -141 515 141 -144 hlineto
            -296 934 rlineto
            118 140 -641 -140 118 hlineto
            -292 -934 rlineto
            -147 hlineto
            459 436 rmoveto
            155 498 rlineto
            41 hlineto
            151 -498 rlineto
            return
          </CharString>
          <CharString index="1">
            -100 callsubr
            -268 -198 -186 -260 -251 182 -188 293 173 134 58 98 75 vhcurveto
            -647 364 -91 callsubr
            return
          </CharString>
          <CharString index="2">
            rmoveto
            270 168 130 309 hvcurveto
            655 154 140 -473 -140 136 -664 vlineto
            -174 -68 -96 -181 -173 -69 97 168 vhcurveto
            669 138 140 -508 -140 152 -635 vlineto
            -260 86 -199 368 vhcurveto
            return
          </CharString>
          <CharString index="3">
            71 51 -43 -76 10 hvcurveto
            133 hlineto
            142 -14 -103 97 -148 hhcurveto
            -145 -107 -96 -143 -11 hvcurveto
            endchar
          </CharString>
          <CharString index="4">
            141 -147 433 vlineto
            168 -91 124 -270 -156 -122 -40 -78 -80 vhcurveto
            -93 callgsubr
            -81 callsubr
            return
          </CharString>
          <CharString index="5">
            760 424 -105 callgsubr
            return
          </CharString>
          <CharString index="6">
            rmoveto
            -170 -94 -117 -152 -152 -94 117 169 170 92 118 153 154 93 -118 -169 vhcurveto
            return
          </CharString>
          <CharString index="7">
            rmoveto
            -70 -70 -101 -39 -94 hhcurveto
            -177 -90 106 145 -10 hvcurveto
            686 hlineto
            272 -145 211 -282 return
          </CharString>
          <CharString index="8">
            rmoveto
            216 -72 callsubr
            -124 -306 rlineto
            return
          </CharString>
          <CharString index="9">
            -67 callgsubr
            hintmask 00100000
            -104 callsubr
          </CharString>
          <CharString index="10">
            rmoveto
            -116 -66 -78 -88 -90 68 -82 114 114 69 82 90 88 -66 78 -117 hvcurveto
            -69 vmoveto
            66 38 -47 -52 -52 -38 -47 -66 -66 -37 47 52 52 37 47 66 hvcurveto
            endchar
          </CharString>
          <CharString index="11">
            rmoveto
            162 -259 rlineto
            196 hlineto
            159 259 rlineto
            -104 hlineto
            -152 -154 -154 154 rlineto
            return
          </CharString>
          <CharString index="12">
            rmoveto
            101 252 101 -252 rlineto
            180 hlineto
            -140 329 rlineto
            -283 hlineto
            -134 -329 rlineto
            return
          </CharString>
          <CharString index="13">
            -27 callgsubr
            hintmask 00010000
            -104 callsubr
          </CharString>
          <CharString index="14">
            -81 callgsubr
            hintmask 1010101000000000
            -63 callgsubr
            hintmask 1010100100000000
            -88 callgsubr
            hintmask 1010010010000000
            -86 callgsubr
            hintmask 0110100010000000
            -48 callgsubr
            hintmask 1010101000000000
            hintmask 0001000000000000
            return
          </CharString>
          <CharString index="15">
            -56 -68 -84 -30 -79 hhcurveto
            -84 callsubr
            return
          </CharString>
          <CharString index="16">
            rmoveto
            133 22 83 87 150 hhcurveto
            138 81 -93 -127 18 hvcurveto
            return
          </CharString>
          <CharString index="17">
            29 callgsubr
            hintmask 11011000
            -104 callgsubr
            hintmask 00100000
            return
          </CharString>
          <CharString index="18">
            -83 0 -64 callsubr
            404 121 224 136 return
          </CharString>
          <CharString index="19">
            -71 callsubr
            -102 -116 -328 379 497 vlineto
            return
          </CharString>
          <CharString index="20">
            2 callgsubr
            hintmask 11010000
            -14 callsubr
            hintmask 11001000
            -14 callgsubr
            hintmask 11010000
            -64 callgsubr
            return
          </CharString>
          <CharString index="21">
            hstemhm
            67 -80 callgsubr
            return
          </CharString>
          <CharString index="22">
            -99 callsubr
            endchar
          </CharString>
          <CharString index="23">
            -90 -55 57 71 117 93 29 103 65 64 -13 -4 51 hvcurveto
            return
          </CharString>
          <CharString index="24">
            -16 callsubr
            hintmask 0111001110000000
            -34 callsubr
            hintmask 1010101110000000
            -88 callsubr
            hintmask 1011001110000000
            -44 callsubr
            hintmask 0110101110000000
            -58 callgsubr
            hintmask 0000010000000000
            return
          </CharString>
          <CharString index="25">
            810 241 -106 callsubr
            return
          </CharString>
          <CharString index="26">
            13 -68 -61 8 -63 hhcurveto
            -212 -159 -74 -199 hvcurveto
            return
          </CharString>
          <CharString index="27">
            rmoveto
            hintmask 1100000001000000
            -101 callgsubr
            hintmask 1100000010000000
            -11 callsubr
          </CharString>
          <CharString index="28">
            -105 callgsubr
            endchar
          </CharString>
          <CharString index="29">
            -77 callsubr
            hintmask 00100000
            return
          </CharString>
          <CharString index="30">
            639 -19 -105 callsubr
            return
          </CharString>
          <CharString index="31">
            -58 callsubr
            vhcurveto
            273 216 rmoveto
            return
          </CharString>
          <CharString index="32">
            -121 452 hlineto
            68 66 80 50 85 hhcurveto
            82 29 -62 -114 hvcurveto
            -394 -94 -141 432 141 -143 vlineto
            0 1 399 46 vvcurveto
            184 -109 96 -144 -97 -89 -42 -79 -99 vhcurveto
            -1 14 -1 69 21 vvcurveto
            -344 -56 callsubr
            endchar
          </CharString>
          <CharString index="33">
            rmoveto
            hintmask 1100000010000000
            -101 callgsubr
            return
          </CharString>
          <CharString index="34">
            88 58 -27 -48 41 hvcurveto
            -69 162 264 -162 -53 vlineto
            47 -53 -78 23 -78 hhcurveto
            -189 -125 -108 -137 hvcurveto
            return
          </CharString>
          <CharString index="35">
            306 rlineto
            -258 hlineto
            return
          </CharString>
          <CharString index="36">
            -214 -498 406 327 -113 102 378 return
          </CharString>
          <CharString index="37">
            -75 callgsubr
            hstemhm
            36 -9 callgsubr
            hintmask 11010000
            518 -10 callgsubr
            vlineto
            hintmask 11100000
            -135 1074 -345 -56 callsubr
            hintmask 11001000
            149 19 callsubr
            hintmask 11100000
            -11 callgsubr
          </CharString>
          <CharString index="38">
            -97 169 351 -169 -77 vlineto
            62 -66 -87 33 -94 hhcurveto
            -215 -161 -113 -218 -222 160 -77 179 -53 hvcurveto
            171 -51 135 -40 -138 vvcurveto
            -103 -83 -77 -126 -116 -77 53 103 -64 vhcurveto
            return
          </CharString>
          <CharString index="39">
            rmoveto
            -63 -50 -48 -60 -61 50 -47 63 65 50 47 61 60 -50 48 -65 hvcurveto
            return
          </CharString>
          <CharString index="40">
            160 -70 callgsubr
            416 145 373 140 return
          </CharString>
          <CharString index="41">
            154 135 -70 -172 79 hvcurveto
            155 383 -164 -126 hlineto
            88 -93 -126 56 -156 hhcurveto
            -392 -236 -257 -370 -340 208 -283 419 -2 hvcurveto
            return
          </CharString>
          <CharString index="42">
            -96 -156 96 hlineto
            304 27 158 231 hvcurveto
            802 vlineto
            return
          </CharString>
          <CharString index="43">
            111 -111 -3 callsubr
            -21 return
          </CharString>
          <CharString index="44">
            hstemhm
            61 335 -170 170 -170 196 return
          </CharString>
          <CharString index="45">
            rmoveto
            -85 callgsubr
            return
          </CharString>
          <CharString index="46">
            -19 rmoveto
            253 2 232 85 91 290 -171 81 rcurveline
            -209 -52 -160 -89 -177 hhcurveto
            -265 -141 205 263 269 155 196 252 hvcurveto
            return
          </CharString>
          <CharString index="47">
            -467 933 6 callgsubr
            hstem
            38 -84 callgsubr
            endchar
          </CharString>
          <CharString index="48">
            -344 552 124 -177 vvcurveto
            -69 -64 -36 -113 -95 -77 35 62 -37 vhcurveto
            return
          </CharString>
          <CharString index="49">
            -133 113 -119 177 return
          </CharString>
          <CharString index="50">
            -56 callgsubr
            -160 return
          </CharString>
          <CharString index="51">
            -140 hlineto
            return
          </CharString>
          <CharString index="52">
            141 hlineto
            return
          </CharString>
          <CharString index="53">
            rmoveto
            275 -107 -169 -331 vlineto
            65 249 373 37 256 vvcurveto
            117 -84 119 -198 -181 -92 -101 -215 vhcurveto
            123 hlineto
            return
          </CharString>
          <CharString index="54">
            -254 -70 callgsubr
            543 182 5 callsubr
            return
          </CharString>
          <CharString index="55">
            551 -19 rmoveto
            209 181 131 220 hvcurveto
            461 -659 -149 280 vvcurveto
            83 74 67 127 95 72 -38 -75 59 vhcurveto
            return
          </CharString>
          <CharString index="56">
            129 -36 573 1252 -128 36 rlineto
            return
          </CharString>
          <CharString index="57">
            410 236 286 339 return
          </CharString>
          <CharString index="58">
            hstemhm
            26 324 -197 197 return
          </CharString>
          <CharString index="59">
            -31 -19 -42 callgsubr
            return
          </CharString>
          <CharString index="60">
            hstemhm
            63 187 376 196 return
          </CharString>
          <CharString index="61">
            rmoveto
            -65 -49 -48 -60 -61 49 -47 65 63 52 47 61 60 -52 48 -63 hvcurveto
            -94 -518 -35 callsubr
            return
          </CharString>
          <CharString index="62">
            960 -99 callsubr
            return
          </CharString>
          <CharString index="63">
            -32 callsubr
            -1039 vlineto
            return
          </CharString>
          <CharString index="64">
            -165 -141 541 -55 callsubr
            return
          </CharString>
          <CharString index="65">
            177 606 rmoveto
            -186 4 118 -89 175 hhcurveto
            199 123 105 156 108 -63 76 -120 29 hvcurveto
            return
          </CharString>
          <CharString index="66">
            27 -31 callsubr
            709 140 return
          </CharString>
          <CharString index="67">
            -333 -56 callsubr
            return
          </CharString>
          <CharString index="68">
            53 -125 -45 10 -78 hhcurveto
            -99 -82 -36 -72 -66 hvcurveto
            -158 vlineto
            69 63 90 52 74 hhcurveto
            59 43 -12 -43 99 hvcurveto
            return
          </CharString>
          <CharString index="69">
            422 1215 -92 callgsubr
          </CharString>
          <CharString index="70">
            63 205 492 207 return
          </CharString>
          <CharString index="71">
            76 237 814 239 return
          </CharString>
          <CharString index="72">
            rmoveto
            -722 vlineto
            -121 -29 -52 -104 vhcurveto
            return
          </CharString>
          <CharString index="73">
            1103 hmoveto
            355 -166 vlineto
            return
          </CharString>
          <CharString index="74">
            219 327 102 69 166 return
          </CharString>
          <CharString index="75">
            -208 166 348 return
          </CharString>
          <CharString index="76">
            22 callsubr
            -116 -21 return
          </CharString>
          <CharString index="77">
            -256 rmoveto
            171 hlineto
            224 76 135 209 hvcurveto
            987 162 140 -550 -29 callsubr
            return
          </CharString>
          <CharString index="78">
            -140 vlineto
            return
          </CharString>
          <CharString index="79">
            425 214 236 379 337 -205 263 -433 hvcurveto
            -601 -140 173 return
          </CharString>
          <CharString index="80">
            -398 -75 callgsubr
            return
          </CharString>
          <CharString index="81">
            0 callgsubr
            hintmask 01110000
            -23 callgsubr
            return
          </CharString>
          <CharString index="82">
            160 709 rmoveto
            -461 vlineto
            -159 67 -89 158 vhcurveto
            184 141 -145 hlineto
            return
          </CharString>
          <CharString index="83">
            141 568 140 162 216 -86 callsubr
            return
          </CharString>
          <CharString index="84">
            -4 -43 -3 -147 -48 vvcurveto
            -4 49 144 -3 return
          </CharString>
          <CharString index="85">
            0 140 18 callgsubr
            return
          </CharString>
          <CharString index="86">
            9 -88 rlineto
            325 hlineto
            return
          </CharString>
          <CharString index="87">
            -90 -24 -31 -71 -14 rrcurveto
            return
          </CharString>
          <CharString index="88">
            -141 hlineto
            return
          </CharString>
          <CharString index="89">
            160 -160 426 -386 -21 864 369 0 callsubr
            86 196 return
          </CharString>
          <CharString index="90">
            85 0 145 1108 -20 hstem
            -22 callgsubr
            return
          </CharString>
          <CharString index="91">
            hstemhm
            220 -33 callsubr
            return
          </CharString>
          <CharString index="92">
            151 -82 82 -82 34 callsubr
            return
          </CharString>
          <CharString index="93">
            -137 -56 callsubr
            return
          </CharString>
          <CharString index="94">
            -125 490 hlineto
            53 82 81 27 69 hhcurveto
            98 29 -67 -91 hvcurveto
            -412 vlineto
            return
          </CharString>
          <CharString index="95">
            184 130 72 136 80 hvcurveto
            -133 85 rlineto
            -90 -57 -97 -47 -104 hhcurveto
            return
          </CharString>
          <CharString index="96">
            -246 hlineto
            endchar
          </CharString>
          <CharString index="97">
            -102 -130 -140 130 -568 vlineto
            return
          </CharString>
          <CharString index="98">
            348 -140 140 return
          </CharString>
          <CharString index="99">
            -154 0 133 -133 298 264 287 -134 134 return
          </CharString>
          <CharString index="100">
            165 83 -37 -119 -86 -63 -64 -111 -107 -52 64 104 -10 hvcurveto
            return
          </CharString>
          <CharString index="101">
            hstemhm
            65 342 -342 463 -319 198 342 196 return
          </CharString>
          <CharString index="102">
            rmoveto
            -123 -72 callsubr
            216 -306 rlineto
            endchar
          </CharString>
          <CharString index="103">
            hstemhm
            -33 callgsubr
            return
          </CharString>
          <CharString index="104">
            141 -139 return
          </CharString>
          <CharString index="105">
            137 4 callgsubr
            return
          </CharString>
          <CharString index="106">
            -75 callgsubr
            hstem
            return
          </CharString>
          <CharString index="107">
            -159 159 hstemhm
            return
          </CharString>
          <CharString index="108">
            165 -568 hlineto
            return
          </CharString>
          <CharString index="109">
            hstemhm
            621 141 -113 113 -113 147 return
          </CharString>
          <CharString index="110">
            -158 568 155 140 -155 99 hlineto
            return
          </CharString>
          <CharString index="111">
            hstemhm
            -48 -34 callgsubr
            return
          </CharString>
          <CharString index="112">
            -157 157 return
          </CharString>
          <CharString index="113">
            160 934 return
          </CharString>
          <CharString index="114">
            193 124 hstem
            64 317 rmoveto
            -124 return
          </CharString>
          <CharString index="115">
            140 111 -61 callgsubr
            return
          </CharString>
          <CharString index="116">
            -140 145 hlineto
            return
          </CharString>
          <CharString index="117">
            -365 -56 callsubr
            return
          </CharString>
          <CharString index="118">
            193 endchar
          </CharString>
          <CharString index="119">
            47 33 callsubr
            -411 160 vlineto
            return
          </CharString>
          <CharString index="120">
            167 140 -554 -140 169 return
          </CharString>
          <CharString index="121">
            -405 -95 149 1065 34 callsubr
            return
          </CharString>
          <CharString index="122">
            87 hmoveto
            156 51 hlineto
            return
          </CharString>
          <CharString index="123">
            491 -10 callgsubr
            vlineto
            return
          </CharString>
          <CharString index="124">
            162 -133 181 return
          </CharString>
          <CharString index="125">
            hstemhm
            61 207 return
          </CharString>
          <CharString index="126">
            -934 hlineto
            return
          </CharString>
          <CharString index="127">
            -11 -363 157 915 140 return
          </CharString>
          <CharString index="128">
            -477 -137 -21 1288 -20 return
          </CharString>
          <CharString index="129">
            -19 156 return
          </CharString>
          <CharString index="130">
            -252 -178 -194 -249 return
          </CharString>
          <CharString index="131">
            rmoveto
            -216 hlineto
            50 -465 rlineto
            return
          </CharString>
          <CharString index="132">
            56 863 rmoveto
            -141 820 return
          </CharString>
          <CharString index="133">
            204 709 2 callgsubr
            return
          </CharString>
          <CharString index="134">
            177 178 274 244 return
          </CharString>
          <CharString index="135">
            57 hmoveto
            549 141 -167 return
          </CharString>
          <CharString index="136">
            -407 171 vlineto
            1 89 rlineto
            return
          </CharString>
          <CharString index="137" raw="1">
            13d0fb1d 0b  
          </CharString>
          <CharString index="138">
            110 -171 vlineto
            return
          </CharString>
          <CharString index="139">
            209 -26 callgsubr
            return
          </CharString>
          <CharString index="140">
            1215 rmoveto
            return
          </CharString>
          <CharString index="141">
            149 hstemhm
            return
          </CharString>
        <CharString name="#1">
          -36 endchar
        </CharString>
        <CharString name=".notdef">
          -312 endchar
        </CharString>
        <CharString name="A">
          -53 callgsubr
          hstem
          -107 callsubr
          endchar
        </CharString>
        <CharString name="AE">
          817 0 123 -123 -20 callgsubr
          69 121 -109 141 -30 149 -148 107 177 321 -286 -9 callsubr
          hstemhm
          1036 -33 callsubr
          hintmask 0101001100111000
          -11 hmoveto
          512 -3 callsubr
          hlineto
          hintmask 0100100100111000
          162 295 rlineto
          387 -295 -154 -141 1037 hlineto
          hintmask 0011001100111000
          355 -166 vlineto
          hintmask 0101001100111000
          -214 -500 vlineto
          hintmask 1001010100111000
          406 329 -113 102 378 -102 -116 -330 vlineto
          hintmask 1001001001111000
          379 499 vlineto
          hintmask 1001001010111000
          -32 callsubr
          -1215 vlineto
          hintmask 1001001001111000
          -140 108 vlineto
          -550 -934 rlineto
          -146 hlineto
          hintmask 1000100100111000
          614 436 rmoveto
          hintmask 1001001001111000
          284 498 rlineto
          24 hlineto
          hintmask 1000100100111000
          -498 vlineto
          endchar
        </CharString>
        <CharString name="Aacute">
          -53 callgsubr
          111 306 hstemhm
          -103 callgsubr
          hintmask 00010000
          -189 749 -85 callsubr
        </CharString>
        <CharString name="Acircumflex">
          203 335 366 65 23 callgsubr
        </CharString>
        <CharString name="Adieresis">
          203 298 366 65 200 endchar
        </CharString>
        <CharString name="Agrave">
          203 357 368 65 11 callsubr
        </CharString>
        <CharString name="Aring">
          -53 callgsubr
          57 71 198 69 hstemhm
          449 79 207 79 -103 callgsubr
          hintmask 00011110
          -164 1033 -97 callsubr
        </CharString>
        <CharString name="Atilde">
          -53 callgsubr
          115 -15 callsubr
          -103 callgsubr
          hintmask 00001000
          -348 762 -36 callgsubr
          hintmask 00010000
          -91 callgsubr
          hintmask 00000100
          -72 callgsubr
        </CharString>
        <CharString name="B">
          95 -70 callgsubr
          412 152 370 -26 callgsubr
          220 219 364 220 -169 225 hintmask 11110100
          619 hmoveto
          360 100 182 162 149 -90 104 -140 44 hvcurveto
          hintmask 11111000
          102 44 72 87 126 vvcurveto
          195 -147 122 -275 vhcurveto
          -536 -140 155 -934 -155 -19 callsubr
          374 553 rmoveto
          144 hlineto
          hintmask 11110100
          185 86 -78 -121 -133 -69 -80 -208 hvcurveto
          -138 hlineto
          934 vmoveto
          94 hlineto
          hintmask 11111000
          196 74 -62 -125 -118 -72 -65 -175 hvcurveto
          -117 hlineto
          endchar
        </CharString>
        <CharString name="C">
          281 -19 160 691 401 0 callsubr
          71 237 766 164 hintmask 10111000
          698 -61 callsubr
          hintmask 11011000
          -66 callsubr
          endchar
        </CharString>
        <CharString name="CR">
          endchar
        </CharString>
        <CharString name="Ccedilla">
          192 -362 85 258 160 -136 -20 847 401 0 callsubr
          72 237 341 122 303 164 hintmask 01001101
          699 -61 callsubr
          hintmask 01010101
          -66 callsubr
          hintmask 10100010
          -214 -339 -66 callgsubr
        </CharString>
        <CharString name="D">
          314 -1 callsubr
          234 219 621 226 vstem
          453 -30 callgsubr
          hlineto
          208 -141 rmoveto
          -28 callsubr
          -934 -173 -17 callgsubr
        </CharString>
        <CharString name="Delta">
          87 0 130 1040 -20 hstem
          1066 118 rmoveto
          -368 1052 rlineto
          -234 hlineto
          -384 -1064 rlineto
          -106 986 vlineto
          -840 130 rmoveto
          218 630 35 102 25 73 17 79 rlinecurve
          18 -80 29 -92 34 -96 211 -616 rcurveline
          endchar
        </CharString>
        <CharString name="E">
          -74 callgsubr
          -16 callsubr
          hintmask 01110111
          -34 callsubr
          hintmask 10101111
          -88 callsubr
          hintmask 10110111
          -44 callsubr
          hintmask 01101111
          -58 callgsubr
          endchar
        </CharString>
        <CharString name="Eacute">
          -74 callgsubr
          111 306 -83 callsubr
          506 1326 -85 callsubr
        </CharString>
        <CharString name="Ecircumflex">
          126 296 366 69 23 callgsubr
        </CharString>
        <CharString name="Edieresis">
          -74 callgsubr
          141 34 callgsubr
          220 219 -160 -8 callgsubr
          -141 102 69 166 hintmask 0111001001100000
          -34 callsubr
          hintmask 1010101001100000
          -88 callsubr
          hintmask 1011001001100000
          -44 callsubr
          hintmask 0110101001100000
          -58 callgsubr
          hintmask 0000010110000000
          621 1581 -92 callgsubr
        </CharString>
        <CharString name="Egrave">
          126 318 366 69 11 callsubr
        </CharString>
        <CharString name="Eth">
          314 -70 callgsubr
          404 149 381 140 hstem
          234 219 621 226 vstem
          661 hmoveto
          -28 callsubr
          -381 -144 -149 144 -404 -173 -19 callsubr
          392 -30 callgsubr
          404 181 149 -181 hlineto
          endchar
        </CharString>
        <CharString name="Euro">
          224 -19 160 285 123 134 123 26 401 -158 158 hstemhm
          hintmask 11101000
          36 549 rmoveto
          -123 169 vlineto
          56 -256 175 -187 297 -2 220 2 201 85 81 290 -172 81 rcurveline
          -209 -41 -133 -89 -147 hhcurveto
          -158 -99 116 169 -41 hvcurveto
          291 123 -311 hlineto
          -2 15 0 29 16 vvcurveto
          25 1 25 2 24 vhcurveto
          310 123 -288 hlineto
          162 44 105 107 147 hhcurveto
          hintmask 11110000
          127 108 -70 -173 65 hvcurveto
          155 383 -163 -118 hlineto
          76 -74 -105 60 -142 hhcurveto
          -267 -180 -176 -251 -60 hvcurveto
          -171 -123 152 hlineto
          -3 -26 0 -25 -26 vvcurveto
          -16 1 -26 1 -15 vhcurveto
          endchar
        </CharString>
        <CharString name="F">
          32 -70 callgsubr
          406 150 171 347 1 callgsubr
          222 219 278 106 71 169 hintmask 11011110
          613 -10 callgsubr
          -172 406 278 -113 106 375 -106 -112 -278 378 455 vlineto
          hintmask 11101110
          -207 169 347 -1006 vlineto
          hintmask 11011110
          -140 163 -934 -163 -6 callgsubr
          endchar
        </CharString>
        <CharString name="G">
          352 -19 160 307 150 233 402 0 callsubr
          75 238 554 467 -231 157 hintmask 11011010
          1103 448 rmoveto
          -6 -190 -123 -112 -240 -5 rrcurveto
          -260 -161 186 288 267 154 192 261 hvcurveto
          hintmask 11101010
          173 131 -83 -160 73 hvcurveto
          155 384 -171 -122 hlineto
          84 -89 -136 56 -162 hhcurveto
          -434 -193 -319 -304 -272 154 -357 496 hvcurveto
          hintmask 11101100
          372 233 185 432 4 hvcurveto
          -467 -150 hlineto
          endchar
        </CharString>
        <CharString name="H">
          312 -70 callgsubr
          419 153 362 -26 callgsubr
          69 507 -361 219 364 505 -364 218 hintmask 11110100
          576 -10 callgsubr
          vlineto
          hintmask 11101010
          -142 419 505 -419 hlineto
          hintmask 11110100
          -141 -141 505 -55 callsubr
          hintmask 11110010
          -146 934 hlineto
          hintmask 11110100
          146 140 -505 -56 callsubr
          hintmask 11101010
          141 -362 -505 362 hlineto
          hintmask 11110100
          142 140 -507 -56 callsubr
          hintmask 11101100
          146 19 callsubr
          hintmask 11110100
          -146 -17 callgsubr
        </CharString>
        <CharString name="I">
          -27 callsubr
          hstem
          19 callgsubr
          vstem
          -96 callgsubr
          endchar
        </CharString>
        <CharString name="IJ">
          233 -256 173 83 141 -55 callgsubr
          32 callgsubr
          183 471 -219 219 hintmask 01110000
          -96 callgsubr
          hintmask 10101000
          556 -30 callsubr
          hintmask 10100100
          8 callgsubr
          hintmask 10101000
          -125 hlineto
          endchar
        </CharString>
        <CharString name="Iacute">
          -27 callsubr
          111 306 -54 callgsubr
          239 1326 -85 callsubr
        </CharString>
        <CharString name="Icircumflex">
          -398 34 366 73 23 callgsubr
        </CharString>
        <CharString name="Idieresis">
          -27 callsubr
          141 34 callgsubr
          17 225 -21 219 -19 224 hintmask 11001000
          -96 callgsubr
          hintmask 00110100
          354 1581 -92 callgsubr
        </CharString>
        <CharString name="Igrave">
          -398 56 366 73 11 callsubr
        </CharString>
        <CharString name="Itilde">
          -398 37 366 73 196 endchar
        </CharString>
        <CharString name="J">
          -415 -256 173 1158 -26 callgsubr
          -25 471 -219 219 hintmask 11100000
          -25 -30 callsubr
          hintmask 11010000
          8 callgsubr
          hintmask 11100000
          -125 hlineto
          endchar
        </CharString>
        <CharString name="Jcircumflex">
          -415 26 366 74 23 callgsubr
        </CharString>
        <CharString name="K">
          207 -75 callgsubr
          hstemhm
          62 503 -362 219 hintmask 11100000
          1217 7 callgsubr
          -151 hlineto
          -405 493 416 441 rlineto
          122 140 -500 -140 120 hlineto
          -398 -425 rlineto
          425 155 140 -514 -29 callsubr
          hintmask 11010000
          141 19 callsubr
          hintmask 11100000
          -141 -141 503 -55 callsubr
          hintmask 11010000
          -143 460 hlineto
          375 -460 rlineto
          -124 -141 544 hlineto
          endchar
        </CharString>
        <CharString name="L">
          16 0 506 18 callgsubr
          hstemhm
          227 218 409 180 vstemhm
          1034 hmoveto
          506 -180 vlineto
          hintmask 11110000
          -365 -409 934 13 callsubr
          -934 -169 -6 callgsubr
          endchar
        </CharString>
        <CharString name="Ldotaccent">
          -540 endchar
        </CharString>
        <CharString name="Lslash">
          16 0 123 -123 141 -141 506 526 121 -78 -26 callgsubr
          60 319 -161 161 -161 409 -400 218 344 145 -80 180 hintmask 1001010001000000
          60 450 rmoveto
          hintmask 0101000011000000
          167 66 rlineto
          -375 -169 -6 callgsubr
          hintmask 0011001000100000
          976 506 -180 hlineto
          hintmask 0101001000100000
          -365 vlineto
          hintmask 0101000011000000
          -409 462 hlineto
          hintmask 1001000101000000
          182 73 rlineto
          129 vlineto
          hintmask 1001000011000000
          -182 -73 rlineto
          hintmask 1000100011000000
          343 13 callsubr
          -430 vlineto
          hintmask 1001010001000000
          -167 -66 rlineto
          endchar
        </CharString>
        <CharString name="M">
          669 -75 callgsubr
          hstemhm
          62 462 -305 158 782 509 -362 205 hintmask 11011000
          219 7 callgsubr
          hintmask 11101000
          -157 -141 462 -55 callsubr
          hintmask 11010100
          -147 919 hlineto
          426 -1060 rlineto
          75 hlineto
          428 1061 rlineto
          -920 vlineto
          hintmask 11101000
          -147 -141 509 -55 callsubr
          hintmask 11100100
          -157 934 156 140 -477 hlineto
          -332 -836 -325 836 rlineto
          -471 -56 callsubr
          hintmask 11011000
          157 hlineto
          endchar
        </CharString>
        <CharString name="N">
          346 -75 callgsubr
          hstemhm
          53 506 -333 163 643 164 hintmask 11101000
          1032 289 rmoveto
          -543 926 rlineto
          -436 -56 callsubr
          hintmask 11011000
          173 19 callsubr
          hintmask 11101000
          -173 -141 506 -55 callsubr
          hintmask 11011000
          -170 865 hlineto
          591 -1006 rlineto
          216 1075 178 140 -511 -140 169 hlineto
          endchar
        </CharString>
        <CharString name="Nacute">
          346 410 366 78 194 endchar
        </CharString>
        <CharString name="Ntilde">
          346 409 366 78 196 endchar
        </CharString>
        <CharString name="O">
          -44 callgsubr
          hstem
          -36 callsubr
          vstem
          -104 callgsubr
          endchar
        </CharString>
        <CharString name="OE">
          986 -19 160 -160 374 -334 -21 547 149 171 366 -158 158 hstemhm
          76 238 766 218 328 101 69 167 hintmask 0101011111000000
          1080 33 callsubr
          -91 vlineto
          69 -92 -124 40 -152 hhcurveto
          -403 -233 -281 -345 -342 229 -284 408 153 123 41 69 91 hvcurveto
          hintmask 0011101111000000
          -91 883 vlineto
          hintmask 0101101111000000
          355 -167 vlineto
          hintmask 1001011111000000
          -71 callsubr
          -101 -116 -328 379 496 vlineto
          hintmask 1001101111000000
          -32 callsubr
          vlineto
          -1646 -610 rmoveto
          hintmask 1001011111000000
          301 183 169 231 139 119 -42 -77 94 vhcurveto
          -693 vlineto
          -79 -91 -122 -43 -137 hhcurveto
          -240 -176 183 281 hvcurveto
          endchar
        </CharString>
        <CharString name="Oacute">
          -44 callgsubr
          93 306 -90 callsubr
          -25 93 -85 callsubr
        </CharString>
        <CharString name="Ocircumflex">
          379 423 366 79 23 callgsubr
        </CharString>
        <CharString name="Odieresis">
          379 387 366 79 200 endchar
        </CharString>
        <CharString name="Ograve">
          379 445 366 79 11 callsubr
        </CharString>
        <CharString name="Oslash">
          379 -80 -21 82 6 callsubr
          158 73 -20 hstem
          -36 callsubr
          vstem
          373 -101 rmoveto
          77 129 rlineto
          -30 79 90 -17 101 hhcurveto
          -50 callsubr
          220 -97 195 -175 112 hvcurveto
          70 118 -108 55 -71 -119 rlineto
          30 -78 -89 16 -99 hhcurveto
          -50 callgsubr
          -219 93 -194 173 -112 hvcurveto
          -77 -128 rlineto
          179 299 rmoveto
          -82 84 -49 126 142 vvcurveto
          -49 callgsubr
          65 58 -15 -25 52 vhcurveto
          -176 -894 rmoveto
          -66 -59 14 26 -52 hvcurveto
          451 784 rlineto
          85 -84 49 -128 -147 vvcurveto
          -47 callgsubr
          vhcurveto
          endchar
        </CharString>
        <CharString name="Otilde">
          -44 callgsubr
          97 151 -82 82 -82 149 29 callgsubr
          hintmask 11000110
          -104 callgsubr
          hintmask 00010000
          -184 106 -89 callgsubr
        </CharString>
        <CharString name="P">
          64 -70 callgsubr
          335 140 459 140 hstem
          220 219 419 227 vstem
          28 callsubr
          335 147 hlineto
          292 207 86 281 240 -169 132 -310 hvcurveto
          -544 -140 158 -934 -163 hlineto
          382 934 rmoveto
          195 hlineto
          141 83 -89 -143 -140 -67 -87 30 callgsubr
        </CharString>
        <CharString name="Q">
          381 -261 179 -75 75 -75 298 934 158 hstemhm
          76 238 814 238 hintmask 01011100
          1205 -73 rmoveto
          -7 -29 -28 -2 -29 hhcurveto
          -109 -114 39 36 -100 hvcurveto
          340 32 230 253 327 vvcurveto
          343 -234 285 -413 -417 -226 -291 -337 -294 181 -238 297 -66 vhcurveto
          -75 -10 -68 -22 -76 -50 54 -155 rcurveline
          52 77 79 21 86 hhcurveto
          hintmask 10011100
          167 135 -104 171 hhcurveto
          21 20 2 5 21 hvcurveto
          -447 1329 rmoveto
          245 164 -202 -266 hvcurveto
          hintmask 00111100
          -277 -171 -189 -237 -244 -162 201 263 278 173 192 232 vhcurveto
          endchar
        </CharString>
        <CharString name="R">
          -67 callsubr
          hstem
          -33 callgsubr
          vstem
          -102 callgsubr
          endchar
        </CharString>
        <CharString name="Racute">
          -67 callsubr
          113 306 -4 callsubr
          hintmask 00010000
          584 1328 -99 callsubr
          hintmask 11101100
          25 -253 -83 callgsubr
        </CharString>
        <CharString name="Rcaron">
          -67 callsubr
          86 6 callgsubr
          -4 callsubr
          hintmask 00011000
          351 1539 -96 callsubr
          hintmask 11100110
          -15 -464 -83 callgsubr
        </CharString>
        <CharString name="Rcommaaccent">
          160 -40 callgsubr
          416 145 373 -26 callgsubr
          225 218 42 -31 callgsubr
          120 219 hintmask 0011110010000000
          -102 callgsubr
          hintmask 1100001000000000
          -737 -526 rmoveto
          hintmask 1100000100000000
          -101 callgsubr
          hintmask 1100001000000000
          -11 callsubr
        </CharString>
        <CharString name="S">
          -52 -19 -18 callsubr
          449 147 -147 210 hintmask 10001101
          -52 callsubr
          hintmask 10010110
          -69 callsubr
          hintmask 01010110
          31 callsubr
          hintmask 00110110
          29 callsubr
          hintmask 10010110
          -71 78 95 -37 112 hhcurveto
          endchar
        </CharString>
        <CharString name="Scaron">
          -52 207 366 83 207 endchar
        </CharString>
        <CharString name="T">
          72 -70 callgsubr
          663 411 1 callgsubr
          47 160 251 219 248 160 hintmask 11011100
          12 callsubr
          hintmask 10111100
          -18 callgsubr
          hintmask 11011100
          -271 160 411 vlineto
          endchar
        </CharString>
        <CharString name="Thorn">
          64 -70 callgsubr
          173 147 455 145 14 -26 callgsubr
          57 382 -219 219 419 227 hintmask 11111010
          28 callsubr
          173 147 hlineto
          292 207 88 286 240 -169 133 -310 hvcurveto
          -167 154 -377 -56 callsubr
          hintmask 11110110
          158 19 callsubr
          hintmask 11111010
          -163 hlineto
          382 775 rmoveto
          154 hlineto
          195 70 -77 -150 -140 -67 -88 30 callgsubr
        </CharString>
        <CharString name="U">
          -57 callgsubr
          hstem
          -32 callgsubr
          vstem
          -77 callsubr
          endchar
        </CharString>
        <CharString name="Uacute">
          -57 callgsubr
          113 306 hstemhm
          -32 callgsubr
          hintmask 00100000
          607 1328 -99 callsubr
          hintmask 11011000
          198 -1347 -105 callsubr
          endchar
        </CharString>
        <CharString name="Ucircumflex">
          -57 callgsubr
          112 329 hstemhm
          -32 callgsubr
          hintmask 00100000
          529 1327 -95 callsubr
          hintmask 11011000
          285 -1346 -105 callsubr
          endchar
        </CharString>
        <CharString name="Udieresis">
          -57 callgsubr
          143 34 callgsubr
          185 218 -85 -8 callgsubr
          -52 183 hintmask 00101100
          722 1583 -99 callgsubr
          hintmask 11010010
          95 -1602 -105 callsubr
          endchar
        </CharString>
        <CharString name="Ugrave">
          205 357 368 85 11 callsubr
        </CharString>
        <CharString name="V">
          214 21 -21 1075 140 hstem
          546 hmoveto
          188 hlineto
          402 1075 rlineto
          150 140 -482 -140 144 hlineto
          -292 -839 -296 839 rlineto
          146 140 -521 -140 150 hlineto
          endchar
        </CharString>
        <CharString name="W">
          777 21 -21 1075 140 hstem
          1291 282 rmoveto
          -237 793 rlineto
          127 140 -504 -140 130 hlineto
          -232 -793 -238 793 31 callgsubr
          -494 9 callsubr
          339 -1075 rlineto
          181 hlineto
          266 879 270 -879 rlineto
          184 hlineto
          331 1075 31 callgsubr
          -462 -140 144 hlineto
          endchar
        </CharString>
        <CharString name="X">
          191 -1 callsubr
          12 507 vstem
          519 -10 callgsubr
          -142 vlineto
          230 351 231 -351 rlineto
          -140 -141 548 141 -169 hlineto
          -338 484 312 450 rlineto
          162 140 -491 -140 136 hlineto
          -217 -328 -218 328 rlineto
          134 140 -532 -140 162 hlineto
          319 -460 -324 -474 rlineto
          -170 -17 callgsubr
        </CharString>
        <CharString name="Y">
          156 -1 callsubr
          502 218 vstem
          891 -10 callgsubr
          -171 409 vlineto
          348 525 rlineto
          159 140 -494 -140 142 hlineto
          -243 -389 -258 389 31 callgsubr
          -531 -140 152 hlineto
          364 -526 rlineto
          -408 -167 -6 callgsubr
          endchar
        </CharString>
        <CharString name="Yacute">
          156 314 368 89 194 endchar
        </CharString>
        <CharString name="Ydieresis">
          156 276 366 89 200 endchar
        </CharString>
        <CharString name="Z">
          38 -70 callgsubr
          -141 375 480 360 1 callgsubr
          105 159 594 158 hintmask 01101100
          1016 hmoveto
          375 -158 vlineto
          hintmask 10101100
          -234 -525 vlineto
          673 940 rlineto
          134 -901 -360 159 vlineto
          hintmask 01011100
          220 473 vlineto
          -664 -924 rlineto
          -151 vlineto
          endchar
        </CharString>
        <CharString name="Zcaron">
          38 252 366 90 207 endchar
        </CharString>
        <CharString name="a">
          -89 callsubr
          -47 callsubr
          hintmask 00111110
          -62 callgsubr
          hintmask 10011110
          -21 callsubr
          hintmask 01011110
          -103 callsubr
          hintmask 00111110
          -76 callsubr
          hintmask 10011110
          -92 callsubr
          endchar
        </CharString>
        <CharString name="aacute">
          -89 callsubr
          94 306 -97 callgsubr
          -163 592 -85 callsubr
        </CharString>
        <CharString name="acircumflex">
          -83 192 0 97 23 callgsubr
        </CharString>
        <CharString name="acute">
          -481 960 306 hstem
          268 -45 callsubr
          endchar
        </CharString>
        <CharString name="acute.cap">
          20 callgsubr
          284 914 rmoveto
          187 257 rlineto
          -207 hlineto
          -99 -257 rlineto
          endchar
        </CharString>
        <CharString name="adieresis">
          -83 156 0 97 200 endchar
        </CharString>
        <CharString name="ae">
          482 -19 151 -132 -64 callsubr
          402 118 -116 121 215 145 -136 136 -47 callsubr
          -196 207 hintmask 0010010111000000
          1335 241 rmoveto
          hintmask 1000100110100000
          -70 -64 -95 -39 -86 hhcurveto
          -165 -82 106 145 -10 hvcurveto
          646 hlineto
          272 -136 211 -261 -124 -108 -44 -107 -82 vhcurveto
          116 -70 -80 35 -157 hhcurveto
          -156 -122 -40 -78 -80 hvcurveto
          -93 callgsubr
          hintmask 0010010111000000
          -81 callsubr
          hintmask 0001010111000000
          -58 callsubr
          156 133 49 79 103 vhcurveto
          -80 79 115 -48 142 hhcurveto
          163 128 58 98 71 hvcurveto
          hintmask 0100010111000000
          -1048 -26 rmoveto
          -84 callsubr
          3 -5 6 -55 14 -50 23 -45 rlinecurve
          -50 -70 -101 -52 -106 hhcurveto
          hintmask 0010101011000000
          441 390 rmoveto
          133 20 77 87 138 hhcurveto
          126 91 -95 -125 hvcurveto
          endchar
        </CharString>
        <CharString name="agrave">
          -83 213 0 97 11 callsubr
        </CharString>
        <CharString name="ampersand">
          268 -19 164 -124 -21 513 148 433 139 hstemhm
          63 201 6 181 278 167 hintmask 10111110
          1070 149 rmoveto
          -87 110 58 66 46 82 36 106 rlinecurve
          139 1 rlineto
          147 -263 vlineto
          -23 -99 -35 -99 -61 -76 -238 275 rcurveline
          178 79 76 102 134 vvcurveto
          145 -130 111 -174 -184 -138 -114 -155 -86 41 -79 72 -91 vhcurveto
          -203 -78 -117 -113 -165 vvcurveto
          -212 182 -159 247 137 120 48 96 113 vhcurveto
          hintmask 01111110
          95 -125 rlineto
          306 149 hlineto
          -499 100 rmoveto
          hintmask 10111110
          -72 -73 -79 -32 -87 hhcurveto
          -151 -110 102 116 102 72 76 140 54 hvcurveto
          77 184 rmoveto
          -68 87 -34 55 50 vvcurveto
          77 59 46 81 79 59 -49 -78 -77 -58 -55 -118 -56 vhcurveto
          endchar
        </CharString>
        <CharString name="approxequal">
          89 428 145 -126 -21 121 145 78 145 -26 145 2 -20 hstemhm
          hintmask 10010100
          541 492 rmoveto
          -39 callgsubr
          hintmask 01110100
          -39 callsubr
          342 vmoveto
          -39 callgsubr
          hintmask 10001000
          -39 callsubr
          endchar
        </CharString>
        <CharString name="aring">
          -89 callsubr
          40 71 198 69 hstemhm
          63 187 55 79 207 79 -44 196 hintmask 0011100100100000
          -62 callgsubr
          hintmask 1001100100100000
          -21 callsubr
          hintmask 0101100100100000
          -103 callsubr
          hintmask 0011100100100000
          -76 callsubr
          hintmask 1001100100100000
          -92 callsubr
          hintmask 0000011011000000
          -139 876 -97 callsubr
        </CharString>
        <CharString name="asciicircum">
          -107 611 -21 643 -20 hstem
          578 1233 rmoveto
          -174 hlineto
          -303 -643 rlineto
          181 hlineto
          209 485 207 -485 rlineto
          181 hlineto
          endchar
        </CharString>
        <CharString name="asciitilde">
          62 461 169 -33 160 hstemhm
          hintmask 10000000
          1013 731 rmoveto
          -65 -65 -68 -36 -78 hhcurveto
          hintmask 01000000
          -137 -151 127 -173 hhcurveto
          -102 -82 -43 -87 -70 hvcurveto
          23 -138 rlineto
          73 72 62 35 81 hhcurveto
          hintmask 10000000
          153 151 -136 166 hhcurveto
          96 81 47 80 68 hvcurveto
          endchar
        </CharString>
        <CharString name="asterisk">
          -74 428 -21 370 417 hstem
          421 161 vstem
          421 534 rmoveto
          80 206 81 -206 92 -127 133 96 -90 126 -166 141 219 14 143 51 -47 157 -149 -49 -191 -121 56 221 rlineto
          151 -161 -151 vlineto
          56 -221 -191 121 -148 49 -48 -157 144 -51 218 -14 -166 -141 -91 -126 134 -96 rlineto
          endchar
        </CharString>
        <CharString name="at">
          358 -66 115 164 114 518 118 153 117 hstemhm
          52 140 138 141 380 468 -132 132 hintmask 11111101
          1115 163 rmoveto
          -77 -98 -125 -37 -147 hhcurveto
          -356 -197 203 304 327 227 233 311 298 159 -201 -215 -238 -166 -127 -66 -18 -6 15 18 hvcurveto
          -1 3 5 16 18 85 102 475 rcurveline
          -143 hlineto
          -20 -106 rlineto
          85 -42 -72 37 -80 hhcurveto
          -245 -123 -227 -204 -206 132 -113 138 77 76 32 81 60 hvcurveto
          -84 11 40 -29 50 hhcurveto
          249 156 239 249 261 -174 271 -410 -440 -243 -341 -334 -315 219 -309 474 185 143 51 90 116 hvcurveto
          hintmask 11111110
          -338 593 rmoveto
          -158 -99 -183 -122 -108 -51 96 107 146 76 169 138 101 65 -69 -108 vhcurveto
          endchar
        </CharString>
        <CharString name="atilde">
          -89 callsubr
          98 151 -82 82 -82 149 -47 callsubr
          hintmask 0011100011000000
          -62 callgsubr
          hintmask 1001100011000000
          -21 callsubr
          hintmask 0101100011000000
          -103 callsubr
          hintmask 0011100011000000
          -76 callsubr
          hintmask 1001100011000000
          -92 callsubr
          hintmask 0000001000000000
          -322 605 -36 callgsubr
          hintmask 0000010000000000
          -91 callgsubr
          hintmask 0000000100000000
          -72 callgsubr
        </CharString>
        <CharString name="b">
          71 -31 callsubr
          710 156 32 callsubr
          31 342 -199 199 487 207 hintmask 10110110
          27 33 callsubr
          -140 147 -934 vlineto
          hintmask 01111010
          -143 -19 callsubr
          48 292 0 0 hvcurveto
          1 104 rlineto
          hintmask 10111010
          -81 65 115 -42 110 hhcurveto
          228 27 callsubr
          -159 21 callgsubr
          -85 hvcurveto
          465 vlineto
          487 -796 rmoveto
          -166 -93 -116 -159 -124 -89 91 25 -22 vhcurveto
          334 vlineto
          26 20 88 97 125 hhcurveto
          159 95 -124 -167 hvcurveto
          endchar
        </CharString>
        <CharString name="backslash">
          -195 2 -21 1243 -20 hstem
          68 1224 rmoveto
          564 -1243 rlineto
          171 hlineto
          -564 1243 rlineto
          endchar
        </CharString>
        <CharString name="bar">
          -414 -230 -21 1478 -20 hstem
          243 160 vstem
          243 -251 rmoveto
          160 1478 -160 hlineto
          endchar
        </CharString>
        <CharString name="braceleft">
          -5 callgsubr
          329 -165 165 -165 348 hintmask 11110000
          31 495 rmoveto
          hintmask 11100100
          144 20 -104 -179 -242 2 -166 265 hvcurveto
          81 133 hlineto
          hintmask 11101000
          -184 1 26 218 232 -30 92 -115 61 hvcurveto
          132 69 15 93 295 vvcurveto
          hintmask 11100100
          149 32 23 149 vhcurveto
          133 -82 vlineto
          -267 1 -175 -242 hvcurveto
          hintmask 11110000
          -171 -26 -102 -138 vhcurveto
          endchar
        </CharString>
        <CharString name="braceright">
          -5 callgsubr
          349 -167 167 hintmask 11110000
          543 638 rmoveto
          -139 -24 104 174 240 -1 172 -265 hvcurveto
          -83 -133 hlineto
          hintmask 11101000
          150 32 -23 -149 -295 15 -93 132 -69 hvcurveto
          -117 -62 -28 -93 -237 vvcurveto
          hintmask 11110000
          -212 -1 -25 -183 vhcurveto
          -133 82 vlineto
          265 2 166 242 179 20 104 143 hvcurveto
          endchar
        </CharString>
        <CharString name="bracketleft">
          14 callsubr
          176 213 -213 408 hintmask 11010000
          584 -95 rmoveto
          149 vlineto
          hintmask 11100000
          -195 1065 hlineto
          hintmask 11010000
          195 149 -408 -1363 hlineto
          endchar
        </CharString>
        <CharString name="bracketright">
          14 callsubr
          74 409 -213 213 hintmask 11100000
          74 1268 rmoveto
          -149 vlineto
          hintmask 11010000
          196 -1065 hlineto
          hintmask 11100000
          -196 -149 409 1363 hlineto
          endchar
        </CharString>
        <CharString name="breve">
          -476 960 119 -119 239 hstemhm
          hintmask 01000000
          21 1199 rmoveto
          -144 11 107 -95 145 hhcurveto
          148 103 96 143 14 hvcurveto
          -133 hlineto
          hintmask 10000000
          -76 -10 -51 -44 -71 hhcurveto
          hintmask 01000000
          -76 -45 44 76 -13 hvcurveto
          endchar
        </CharString>
        <CharString name="brokenbar">
          -646 -200 -21 1436 -20 hstem
          147 122 vstem
          147 33 callsubr
          -545 122 545 vlineto
          -122 -891 rmoveto
          -545 122 545 vlineto
          endchar
        </CharString>
        <CharString name="bullet">
          -501 368 386 hstem
          80 401 vstem
          280 754 rmoveto
          -112 -88 -84 -108 -107 88 -87 112 111 90 87 107 108 -90 84 -111 hvcurveto
          endchar
        </CharString>
        <CharString name="c">
          -91 22 callsubr
          398 331 -155 155 hstemhm
          59 206 hintmask 10110000
          12 callgsubr
          rlineto
          51 -47 -85 46 -104 hhcurveto
          23 callsubr
          -222 146 -220 305 -12 callsubr
          -158 -90 114 177 171 90 112 158 hvcurveto
          hintmask 11010000
          126 64 -74 -102 27 hvcurveto
          157 hlineto
          endchar
        </CharString>
        <CharString name="caron">
          -60 callsubr
        </CharString>
        <CharString name="caron.cap">
          -60 callsubr
        </CharString>
        <CharString name="ccedilla">
          -91 189 0 99 203 endchar
        </CharString>
        <CharString name="cedilla">
          -473 -362 85 282 -20 hstem
          317 122 vstem
          152 -358 -66 callgsubr
        </CharString>
        <CharString name="cent">
          -91 -334 -21 333 128 -125 156 380 320 -302 331 -155 155 324 -20 hstemhm
          56 152 -149 206 hintmask 1101001100000000
          12 callgsubr
          -17 18 -22 18 -26 15 rlinecurve
          128 383 -79 24 -124 -375 rlineto
          hintmask 1100101100000000
          9 -30 -32 5 -34 hhcurveto
          hintmask 1101001010000000
          23 callsubr
          -166 81 -164 168 -73 hvcurveto
          -110 -332 78 -23 109 330 rlineto
          hintmask 1011001100000000
          -9 38 42 -5 45 hhcurveto
          -12 callsubr
          -28 -25 3 7 -24 hvcurveto
          181 542 rlineto
          hintmask 1100101100000000
          59 -29 36 -56 18 -69 rrcurveto
          157 hlineto
          hintmask 1101001010000000
          -622 -107 rmoveto
          hintmask 1100011100000000
          171 90 112 158 vhcurveto
          8 8 -1 8 hhcurveto
          -174 -526 rlineto
          hintmask 1101001010000000
          -64 49 -34 85 110 vvcurveto
          endchar
        </CharString>
        <CharString name="circumflex">
          -467 959 329 hstem
          193 959 -95 callsubr
          endchar
        </CharString>
        <CharString name="circumflex.cap">
          -467 896 275 hstem
          201 896 rmoveto
          93 230 93 -230 rlineto
          148 hlineto
          -104 275 rlineto
          -275 hlineto
          -98 -275 rlineto
          endchar
        </CharString>
        <CharString name="colon">
          -554 80 243 298 245 hstem
          126 254 vstem
          126 323 rmoveto
          -243 254 243 vlineto
          -254 543 15 callgsubr
        </CharString>
        <CharString name="comma">
          -560 -250 -21 293 -21 241 -20 hstemhm
          119 255 -125 125 hintmask 11110000
          119 236 rmoveto
          -45 1 -146 1 -44 vhcurveto
          hintmask 11101000
          128 hlineto
          -110 -36 -42 -96 -18 vhcurveto
          -102 vlineto
          196 1 61 98 193 vvcurveto
          45 -3 140 -4 36 vhcurveto
          hintmask 11110000
          -57 -142 -1 -5 -49 hvcurveto
          endchar
        </CharString>
        <CharString name="commaaccent">
          -602 -56 callgsubr
          hstemhm
          104 -31 callgsubr
          hintmask 11100000
          104 -385 rmoveto
          hintmask 11010000
          -101 callgsubr
          hintmask 11100000
          -11 callsubr
        </CharString>
        <CharString name="copyright">
          410 -19 125 183 115 421 114 170 124 hstem
          74 159 157 151 665 160 vstem
          718 1233 rmoveto
          -429 -215 -314 -313 -313 213 -312 431 432 216 312 313 313 -218 314 -430 hvcurveto
          -124 vmoveto
          323 165 -255 -251 -249 -162 -248 -326 -325 -160 248 249 251 163 255 322 hvcurveto
          195 -604 rmoveto
          -68 -41 -71 -33 -77 hhcurveto
          -116 -67 83 130 126 66 82 117 93 46 -55 -74 21 hvcurveto
          115 230 -120 hlineto
          1 -58 rlineto
          37 -34 -63 34 -76 hhcurveto
          -186 -131 -142 -183 -163 107 -162 224 136 97 52 100 58 hvcurveto
          endchar
        </CharString>
        <CharString name="currency">
          -131 472 -21 35 114 406 118 33 -20 hstem
          123 138 405 138 vstem
          123 806 rmoveto
          -80 28 -69 47 -56 vhcurveto
          -82 -82 69 -68 88 87 rlineto
          -33 55 62 -19 74 hhcurveto
          73 63 18 35 56 hvcurveto
          90 -88 69 68 -85 84 rlineto
          47 56 27 67 80 vvcurveto
          76 -24 67 -48 56 vhcurveto
          83 83 -69 69 -88 -88 rlineto
          35 -55 -65 20 -74 hhcurveto
          -74 -64 -20 -33 -55 hvcurveto
          -86 86 -69 -69 80 -81 rlineto
          -48 -56 -25 -67 -78 vvcurveto
          138 -1 rmoveto
          108 79 93 124 122 80 -93 -109 -110 -79 -94 -123 -122 -81 94 111 vhcurveto
          endchar
        </CharString>
        <CharString name="d">
          71 -31 callsubr
          711 155 32 callsubr
          66 205 330 355 -197 197 -197 343 hintmask 10111100
          601 22 callgsubr
          hintmask 10111010
          158 -322 hlineto
          76 -84 -88 37 -115 hhcurveto
          -246 -160 -194 -244 -291 192 -156 213 109 101 36 81 76 hvcurveto
          hintmask 01111001
          -98 vlineto
          0 296 0 49 vhcurveto
          141 vlineto
          hintmask 10111100
          -146 1074 -355 hlineto
          -330 -796 rmoveto
          169 91 123 159 124 90 -98 -25 23 vhcurveto
          -338 vlineto
          -24 -24 -87 -89 -124 hhcurveto
          -160 -92 119 163 hvcurveto
          endchar
        </CharString>
        <CharString name="dagger">
          -227 -206 -21 1462 -20 hstem
          370 88 vstem
          458 765 rmoveto
          299 -47 rlineto
          195 vlineto
          -299 -44 64 366 rlineto
          -212 hlineto
          60 -366 -298 44 rlineto
          -195 vlineto
          298 47 -77 -189 rlineto
          37 -180 40 -243 -380 vvcurveto
          88 hlineto
          384 41 242 40 177 vhcurveto
          endchar
        </CharString>
        <CharString name="daggerdbl">
          -207 -206 -21 1460 -20 hstemhm
          72 399 -115 115 -115 400 hintmask 11010000
          465 506 rmoveto
          13 359 rlineto
          hintmask 11001000
          278 -47 rlineto
          194 vlineto
          -298 -43 64 264 rlineto
          -213 hlineto
          61 -264 rlineto
          hintmask 11100000
          -298 43 rlineto
          -194 vlineto
          278 47 12 -357 -12 -367 -278 48 rlineto
          -195 vlineto
          298 43 -61 -264 rlineto
          213 hlineto
          -64 264 rlineto
          hintmask 11001000
          298 -43 rlineto
          195 vlineto
          -278 -48 rlineto
          endchar
        </CharString>
        <CharString name="degree">
          -407 688 89 336 86 hstem
          64 97 332 97 vstem
          327 1113 rmoveto
          108 58 -85 -83 -89 -61 -79 -105 -107 -59 81 87 87 60 81 106 hvcurveto
          86 vmoveto
          -166 -97 -123 -132 -133 96 -123 167 167 96 123 133 132 -97 123 -166 hvcurveto
          endchar
        </CharString>
        <CharString name="dieresis">
          -399 990 217 hstem
          18 -8 callgsubr
          vstem
          -38 callsubr
        </CharString>
        <CharString name="dieresis.cap">
          -387 948 153 -111 34 callgsubr
          18 225 -185 154 159 152 -101 224 hintmask 10011000
          hintmask 01100100
          -38 callsubr
        </CharString>
        <CharString name="divide">
          104 152 -21 364 118 363 -20 hstem
          506 150 vstem
          158 613 rmoveto
          -118 843 118 vlineto
          -451 211 rmoveto
          24 82 17 23 23 -20 89 -24 -25 -81 -18 -23 -22 18 -89 26 hvcurveto
          -693 vmoveto
          24 82 17 23 23 -20 90 -24 -25 -81 -18 -22 -23 18 -90 26 hvcurveto
          endchar
        </CharString>
        <CharString name="dollar">
          -55 -113 -21 116 425 -386 -21 864 368 135 -20 hstemhm
          86 179 168 133 153 159 -159 222 hintmask 1011111100000000
          266 hmoveto
          89 vlineto
          49 -45 55 -31 63 -16 rrcurveto
          -131 133 vlineto
          hintmask 1101111010000000
          116 vlineto
          202 5 173 130 215 vvcurveto
          244 -192 84 -183 52 vhcurveto
          351 vlineto
          65 -14 54 -39 34 -55 rrcurveto
          -91 vlineto
          hintmask 1101111100000000
          159 351 -165 -77 hlineto
          -40 37 -56 27 -51 16 rrcurveto
          149 -133 -135 vlineto
          -200 -10 -147 -112 -208 vvcurveto
          -227 172 -73 175 -55 vhcurveto
          -395 vlineto
          -70 22 -53 48 -45 75 rrcurveto
          31 callsubr
          hintmask 1011111100000000
          -407 vlineto
          637 324 rmoveto
          -92 -64 -72 -101 -15 vhcurveto
          361 vlineto
          98 -37 67 -48 -97 vvcurveto
          -449 600 rmoveto
          72 54 55 97 15 vhcurveto
          -312 vlineto
          -87 34 -64 45 91 vvcurveto
          endchar
        </CharString>
        <CharString name="dotaccent">
          -525 950 175 -135 217 hstem
          18 225 -66 182 63 224 -41 callgsubr
        </CharString>
        <CharString name="dotaccentcmb">
          -37 callgsubr
        </CharString>
        <CharString name="dotaccentcmb.cap">
          -37 callgsubr
        </CharString>
        <CharString name="dotlessi">
          -489 -22 callsubr
          -86 callsubr
          hintmask 11001000
          26 callsubr
          hintmask 11100000
          -14 callsubr
          hintmask 11010000
          -14 callgsubr
          hintmask 11100000
          9 callgsubr
        </CharString>
        <CharString name="dotlessj">
          -537 27 callgsubr
          4 callsubr
          hintmask 11001000
          181 709 -35 callsubr
          hintmask 11100000
          -65 callsubr
          hintmask 11010000
          10 callsubr
          endchar
        </CharString>
        <CharString name="dotlessj.001">
          -619 -367 128 924 11 callgsubr
          -60 375 -152 152 hintmask 11010000
          -60 -361 rmoveto
          -5 32 26 -1 33 hhcurveto
          265 3 19 166 202 4 -1 107 105 vvcurveto
          585 -283 -120 132 -334 vlineto
          -184 3 -187 -23 vvcurveto
          -140 -37 -56 -112 vhcurveto
          hintmask 11100000
          -27 -19 1 3 -31 hvcurveto
          endchar
        </CharString>
        <CharString name="e">
          -68 callgsubr
          hstem
          61 207 vstem
          -82 callsubr
          endchar
        </CharString>
        <CharString name="eacute">
          -68 callgsubr
          94 306 18 callsubr
          hintmask 00010000
          483 -45 callsubr
          hintmask 11101000
          493 -719 -106 callsubr
          endchar
        </CharString>
        <CharString name="ecircumflex">
          -68 callgsubr
          93 329 18 callsubr
          hintmask 00010000
          405 959 -95 callsubr
          hintmask 11101000
          580 -718 -106 callsubr
          endchar
        </CharString>
        <CharString name="edieresis">
          -68 callgsubr
          124 217 18 callsubr
          -73 -8 callgsubr
          hintmask 00010110
          599 1215 -99 callgsubr
          hintmask 11101000
          389 -974 -106 callsubr
          endchar
        </CharString>
        <CharString name="egrave">
          -43 234 0 101 11 callsubr
        </CharString>
        <CharString name="eight">
          -13 -19 149 430 141 384 148 hstemhm
          79 201 -165 165 -165 190 434 188 -164 164 -164 201 hintmask 1111000010000000
          523 -19 rmoveto
          285 156 150 203 143 -76 109 -156 48 hvcurveto
          hintmask 1110100100000000
          141 65 54 94 124 vvcurveto
          190 -156 126 -250 -250 -156 -127 -191 -123 57 -96 139 -64 vhcurveto
          hintmask 1111000100000000
          -157 -49 -75 -107 -142 vvcurveto
          -199 147 -154 297 vhcurveto
          -14 579 rmoveto
          169 -4 85 -81 -134 vvcurveto
          -124 -94 -87 -146 -150 -93 89 125 129 81 82 148 5 vhcurveto
          12 525 rmoveto
          hintmask 1110011000000000
          144 74 -77 -110 -114 -79 -74 -130 -9 hvcurveto
          -142 8 -83 74 115 vvcurveto
          115 78 72 138 vhcurveto
          endchar
        </CharString>
        <CharString name="ellipsis">
          441 -1 245 hstem
          127 244 rmoveto
          -23 callsubr
          54 hhcurveto
          4 42 4 -35 callgsubr
          54 hhcurveto
          5 42 3 -35 callgsubr
          55 hhcurveto
          4 42 3 148 49 vvcurveto
          3 -48 -145 3 -55 hhcurveto
          endchar
        </CharString>
        <CharString name="emdash">
          763 7 callsubr
          1695 124 vlineto
          endchar
        </CharString>
        <CharString name="endash">
          -59 7 callsubr
          873 124 vlineto
          endchar
        </CharString>
        <CharString name="equal">
          169 248 149 250 150 hstem
          163 647 rmoveto
          902 150 -902 hlineto
          -549 vmoveto
          902 149 -902 hlineto
          endchar
        </CharString>
        <CharString name="eth">
          -54 -19 152 472 160 132 149 -139 326 -153 153 hstem
          86 185 449 197 vstem
          545 848 rmoveto
          150 40 rlineto
          19 -60 10 -75 -90 vvcurveto
          68 -70 -101 34 -110 hhcurveto
          -211 -146 -151 -217 -250 146 -166 244 293 148 213 402 130 -17 114 -34 94 hvcurveto
          138 37 -35 120 -158 -43 rlineto
          119 -76 -118 66 -161 hhcurveto
          -101 -118 -43 -46 -60 hvcurveto
          66 -124 rlineto
          40 78 73 21 64 hhcurveto
          72 61 -26 -54 45 hvcurveto
          -126 -33 rlineto
          -32 -363 rmoveto
          69 106 -34 -73 67 hvcurveto
          -231 -16 -60 -134 -162 hhcurveto
          -139 -72 104 143 133 76 92 131 hvcurveto
          endchar
        </CharString>
        <CharString name="exclam">
          -519 0 242 980 -20 hstem
          170 203 vstem
          170 1222 rmoveto
          -316 vlineto
          49 -497 rlineto
          109 hlineto
          45 497 rlineto
          316 vlineto
          -224 -1222 rmoveto
          224 hlineto
          20 242 rlineto
          -244 hlineto
          endchar
        </CharString>
        <CharString name="exclamdown">
          -519 7 20 960 242 hstem
          170 203 vstem
          373 7 rmoveto
          316 vlineto
          -45 497 rlineto
          -109 hlineto
          -49 -497 rlineto
          -316 vlineto
          -21 980 rmoveto
          244 hlineto
          -20 242 rlineto
          -224 hlineto
          endchar
        </CharString>
        <CharString name="f">
          -455 -15 callgsubr
          -137 -2 callsubr
          hintmask 11101000
          63 hmoveto
          482 -55 callsubr
          hintmask 11010110
          3 callsubr
          106 21 42 58 vhcurveto
          hintmask 11100110
          -51 callgsubr
          hintmask 11101000
          -126 hlineto
          endchar
        </CharString>
        <CharString name="fi">
          82 -15 callgsubr
          -222 216 -131 -2 callsubr
          -19 333 -196 196 hintmask 1100101010000000
          794 709 rmoveto
          -568 -137 -141 470 141 -137 708 -603 99 vlineto
          106 21 42 58 vhcurveto
          hintmask 1110001101000000
          -51 callgsubr
          hintmask 1110010010000000
          -126 17 callgsubr
          hlineto
          hintmask 1101001010000000
          -158 568 hlineto
          519 518 -68 callsubr
          endchar
        </CharString>
        <CharString name="five">
          -55 -19 148 505 160 165 256 1 callgsubr
          719 204 hintmask 11011000
          493 -19 rmoveto
          304 2 126 194 210 vvcurveto
          240 -156 167 -238 -101 -80 -29 -70 -68 vhcurveto
          3 60 21 261 5 59 rrcurveto
          386 hlineto
          hintmask 11101000
          -116 156 256 -689 -624 vlineto
          114 -57 rlineto
          69 69 74 31 78 hhcurveto
          128 94 -82 -173 -142 -78 -108 -153 hvcurveto
          -136 -66 76 134 -25 hvcurveto
          -182 hlineto
          -228 21 147 -130 246 hhcurveto
          endchar
        </CharString>
        <CharString name="fl">
          77 -15 callgsubr
          -158 140 4 callgsubr
          -64 347 -196 196 hintmask 1110011010000000
          1104 -10 callgsubr
          -135 vlineto
          hintmask 1101011010000000
          1074 -510 vlineto
          -196 -74 -96 -168 hvcurveto
          -10 callsubr
          hintmask 1110100010000000
          -126 17 callgsubr
          hlineto
          hintmask 1110011010000000
          3 callsubr
          hintmask 1101011010000000
          106 21 21 58 vhcurveto
          307 19 callsubr
          hintmask 1110100100000000
          -146 -17 callgsubr
        </CharString>
        <CharString name="florin">
          -144 -347 102 914 114 186 264 -93 93 hstemhm
          746 188 hintmask 11011000
          760 783 rmoveto
          -210 hlineto
          32 165 rlineto
          130 24 20 62 52 hhcurveto
          hintmask 11101000
          45 23 -65 -106 hvcurveto
          145 43 58 75 74 -79 57 -169 -209 -105 -108 -188 -38 hvcurveto
          -31 -154 rlineto
          -161 hlineto
          -20 -114 rlineto
          161 hlineto
          -121 -632 rlineto
          -208 -40 -34 -74 -82 hhcurveto
          -40 -52 13 10 -28 hvcurveto
          -25 -103 rlineto
          -12 37 60 -10 52 hhcurveto
          203 135 88 295 58 hvcurveto
          124 633 rlineto
          209 hlineto
          endchar
        </CharString>
        <CharString name="foundryicon">
          endchar
        </CharString>
        <CharString name="four">
          -106 -70 callgsubr
          193 136 745 -20 hstem
          523 181 vstem
          704 7 callgsubr
          193 176 136 -176 745 -178 vlineto
          -494 -717 rlineto
          -164 491 -193 -155 -141 471 141 vlineto
          -648 329 rmoveto
          332 507 rlineto
          -507 vlineto
          endchar
        </CharString>
        <CharString name="foursuperior">
          -394 0 106 125 101 494 22 hstem
          368 133 vstem
          511 107 -90 callgsubr
        </CharString>
        <CharString name="fraction">
          -195 -14 -21 1281 -20 hstem
          94 -6 rmoveto
          108 -29 573 1252 -107 29 rlineto
          endchar
        </CharString>
        <CharString name="g">
          67 -348 137 199 156 567 138 17 -20 hstemhm
          60 204 489 197 -197 347 hintmask 11101100
          514 -348 rmoveto
          289 147 104 207 hvcurveto
          746 vlineto
          hintmask 11101010
          150 140 -348 -99 hlineto
          hintmask 11011100
          79 -84 -89 37 -111 hhcurveto
          -248 -160 -195 -246 -264 176 -173 229 108 114 38 63 66 hvcurveto
          -135 vlineto
          -115 -118 -50 -138 -106 -71 29 51 -66 vhcurveto
          -88 -117 rlineto
          -70 85 113 -30 150 hhcurveto
          3 492 rmoveto
          -160 -93 116 159 hvcurveto
          hintmask 11101100
          169 94 123 161 123 89 -97 -24 21 vhcurveto
          -337 vlineto
          -22 -23 -89 -87 -123 hhcurveto
          endchar
        </CharString>
        <CharString name="germandbls">
          83 -70 callgsubr
          445 140 353 154 hstemhm
          196 213 169 405 -367 481 -316 202 -101 215 hintmask 11110010
          409 7 callgsubr
          687 vlineto
          186 79 65 126 103 64 -65 -94 vhcurveto
          hintmask 11111000
          -101 -56 -93 -147 vhcurveto
          -29 callsubr
          hintmask 11110001
          227 77 -94 -124 hvcurveto
          hintmask 11110100
          -171 -120 -56 -146 vhcurveto
          -6 callgsubr
          350 131 155 213 158 -105 110 -183 42 hvcurveto
          hintmask 11111000
          120 48 54 88 117 vvcurveto
          179 -152 123 -217 -281 -137 -151 -258 vhcurveto
          -683 -153 17 callgsubr
          vlineto
          endchar
        </CharString>
        <CharString name="grave">
          -481 960 306 hstem
          465 960 -5 callsubr
        </CharString>
        <CharString name="grave.cap">
          20 callgsubr
          411 914 rmoveto
          -99 257 rlineto
          -207 hlineto
          187 -257 rlineto
          endchar
        </CharString>
        <CharString name="greater">
          138 126 -21 986 -20 hstem
          864 599 rmoveto
          -725 -330 rlineto
          -164 vlineto
          916 425 rlineto
          136 vlineto
          -916 425 rlineto
          -163 vlineto
          endchar
        </CharString>
        <CharString name="greaterequal">
          -17 callsubr
          690 vmoveto
          84 vlineto
          -879 479 rlineto
          -161 vlineto
          660 -361 -660 -356 rlineto
          -162 vlineto
          endchar
        </CharString>
        <CharString name="guillemotleft">
          75 166 10 callgsubr
          139 506 rmoveto
          315 -361 rlineto
          128 hlineto
          -207 410 207 410 rlineto
          -128 hlineto
          -315 -359 rlineto
          420 -100 rmoveto
          314 -361 rlineto
          128 hlineto
          -206 410 206 410 rlineto
          -128 hlineto
          -314 -359 rlineto
          endchar
        </CharString>
        <CharString name="guillemotright">
          75 166 10 callgsubr
          1007 606 rmoveto
          -315 359 rlineto
          -127 hlineto
          206 -410 -206 -410 rlineto
          127 hlineto
          315 361 rlineto
          -419 100 rmoveto
          -316 359 rlineto
          -127 13 callgsubr
          127 hlineto
          316 361 rlineto
          endchar
        </CharString>
        <CharString name="guilsinglleft">
          -337 164 10 callgsubr
          133 500 rmoveto
          313 -357 rlineto
          144 hlineto
          -207 410 207 410 rlineto
          -144 hlineto
          -313 -357 rlineto
          endchar
        </CharString>
        <CharString name="guilsinglright">
          -337 164 10 callgsubr
          590 606 rmoveto
          -314 357 rlineto
          -143 13 callgsubr
          143 hlineto
          314 357 rlineto
          endchar
        </CharString>
        <CharString name="h">
          33 -21 callgsubr
          209 -25 callgsubr
          hintmask 11101010
          31 hmoveto
          472 -55 callsubr
          hintmask 11110001
          -13 callsubr
          hintmask 11110010
          -94 -141 420 -55 callsubr
          hintmask 11110001
          -7 callgsubr
          446 -345 -29 callsubr
          hintmask 11100110
          149 19 callsubr
          hintmask 11101010
          -151 hlineto
          endchar
        </CharString>
        <CharString name="hbar">
          -36 -21 callgsubr
          46 85 78 -25 callgsubr
          hintmask 1111001100000000
          58 912 rmoveto
          124 -771 hlineto
          hintmask 1111100100000000
          -151 -19 callsubr
          hintmask 1111010100000000
          472 -55 callsubr
          hintmask 1111100010000000
          -13 callsubr
          hintmask 1111100100000000
          -94 -141 420 -55 callsubr
          hintmask 1111100010000000
          -7 callgsubr
          143 99 85 -99 218 -345 -29 callsubr
          hintmask 1111001100000000
          149 -78 -124 hlineto
          endchar
        </CharString>
        <CharString name="hungarumlaut">
          -383 955 311 hstem
          487 955 rmoveto
          26 callgsubr
          -120 -311 rlineto
          -162 hmoveto
          26 callgsubr
          -121 -311 rlineto
          endchar
        </CharString>
        <CharString name="hyphen">
          -406 357 149 hstem
          92 357 rmoveto
          475 149 -475 hlineto
          endchar
        </CharString>
        <CharString name="i">
          -489 0 -24 callsubr
          hintmask 11100100
          -73 callgsubr
          hintmask 11110000
          -137 -19 callsubr
          hintmask 11101000
          470 -55 callsubr
          hintmask 11110000
          -4 callgsubr
          endchar
        </CharString>
        <CharString name="iacute">
          -43 callgsubr
          119 306 -86 callsubr
          hintmask 00100000
          257 968 -99 callsubr
          hintmask 11000100
          113 -259 -87 callsubr
          endchar
        </CharString>
        <CharString name="icircumflex">
          -43 callgsubr
          119 329 -86 callsubr
          hintmask 00100000
          135 968 -95 callsubr
          hintmask 11000100
          244 -259 -87 callsubr
          endchar
        </CharString>
        <CharString name="idieresis">
          -43 callgsubr
          137 34 callgsubr
          -74 225 -84 -80 callgsubr
          -70 224 hintmask 00110001
          330 1211 -99 callgsubr
          hintmask 11000010
          52 -502 2 callgsubr
          hintmask 11001000
          -14 callsubr
          hintmask 11000100
          -14 callgsubr
          hintmask 11001000
          9 callgsubr
        </CharString>
        <CharString name="igrave">
          -43 callgsubr
          119 306 -86 callsubr
          hintmask 11000100
          204 709 -87 callsubr
          hintmask 11000100
          hintmask 00100000
          322 259 -5 callsubr
        </CharString>
        <CharString name="ij">
          30 -342 156 186 -24 callsubr
          119 -34 callgsubr
          hintmask 0111001000000000
          -73 callgsubr
          hintmask 0111100000000000
          -137 -19 callsubr
          hintmask 0111010000000000
          470 -55 callsubr
          hintmask 0111100000000000
          -4 callgsubr
          hintmask 0111001000000000
          hintmask 1011000001000000
          775 518 -46 callsubr
          hintmask 1011000100000000
          -65 callsubr
          hintmask 1011000010000000
          10 callsubr
          endchar
        </CharString>
        <CharString name="infinity">
          388 207 131 -116 -21 645 137 -131 -20 157 -20 hstemhm
          72 133 1040 131 hintmask 10100110
          1376 592 rmoveto
          236 -128 155 -187 -137 -103 -79 -159 -84 vhcurveto
          hintmask 10011110
          175 -90 -130 69 -124 hhcurveto
          -194 -127 -172 -219 -240 133 -151 188 121 113 83 161 84 hvcurveto
          hintmask 01100110
          -177 99 122 -73 127 hhcurveto
          189 128 178 213 hvcurveto
          -325 254 rmoveto
          116 78 -111 -141 hvcurveto
          hintmask 10100110
          -141 -75 -115 -117 -105 -74 85 169 -71 vhcurveto
          172 79 72 82 97 hhcurveto
          -654 -502 rmoveto
          -131 -61 117 135 hvcurveto
          hintmask 10011110
          141 74 115 114 105 76 -85 -169 71 vhcurveto
          -173 -76 -80 -81 -92 hhcurveto
          endchar
        </CharString>
        <CharString name="integral">
          -170 -348 90 1245 246 -90 90 hstemhm
          0 173 125 225 -184 214 130 173 hintmask 11010110
          219 -348 rmoveto
          334 0 432 365 hvcurveto
          hintmask 10111010
          161 -30 211 104 vvcurveto
          168 31 50 51 vhcurveto
          hintmask 11011010
          48 30 -54 -102 hvcurveto
          133 40 58 62 74 -72 52 -141 -336 -9 -404 -303 hvcurveto
          hintmask 11010110
          -146 41 -262 -157 vvcurveto
          -172 -37 -47 -44 vhcurveto
          hintmask 11011010
          -48 -37 40 123 hvcurveto
          -134 -39 -56 -60 -75 65 -62 154 hvcurveto
          endchar
        </CharString>
        <CharString name="itilde">
          -43 callgsubr
          115 151 -82 82 -82 149 -86 callsubr
          hintmask 11000001
          26 callsubr
          hintmask 11000100
          -14 callsubr
          hintmask 11000010
          -14 callgsubr
          hintmask 11000100
          -64 callgsubr
          hintmask 11000001
          hintmask 00010000
          3 264 -89 callgsubr
        </CharString>
        <CharString name="j">
          -537 27 callgsubr
          162 216 4 callsubr
          hintmask 11100100
          275 1227 -46 callsubr
          hintmask 11110000
          -65 callsubr
          hintmask 11101000
          10 callsubr
          endchar
        </CharString>
        <CharString name="jcircumflex">
          -619 27 callgsubr
          110 329 4 callsubr
          hintmask 11000100
          181 709 -35 callsubr
          hintmask 11010000
          -65 callsubr
          hintmask 11001000
          10 callsubr
          hintmask 11000100
          hintmask 00100000
          103 250 -95 callsubr
          endchar
        </CharString>
        <CharString name="k">
          28 0 -24 callgsubr
          174 16 callgsubr
          hintmask 11101010
          16 callsubr
          hintmask 11110001
          -52 callgsubr
          hintmask 11110010
          -12 callgsubr
          hintmask 11100110
          152 19 callsubr
          hintmask 11110010
          -11 callgsubr
        </CharString>
        <CharString name="kcommaaccent">
          28 -332 -21 272 241 -160 -24 callgsubr
          17 -31 callgsubr
          -96 16 callgsubr
          hintmask 0011101000100000
          16 callsubr
          hintmask 0011110000010000
          -52 callgsubr
          hintmask 0011110000100000
          -12 callgsubr
          hintmask 0011100100100000
          152 19 callsubr
          hintmask 0011110000100000
          -151 -19 callsubr
          hintmask 0011101000100000
          hintmask 1100000010000000
          363 -385 -80 callsubr
        </CharString>
        <CharString name="kgreenlandic">
          28 0 141 568 -1 callgsubr
          174 16 callgsubr
          hintmask 11010100
          16 callsubr
          hintmask 11100010
          -110 277 hlineto
          314 -277 rlineto
          -87 -141 445 141 -136 hlineto
          -328 289 315 279 rlineto
          137 140 hlineto
          hintmask 11100100
          -486 -140 133 hlineto
          -307 -270 rlineto
          410 -347 -29 callsubr
          hintmask 11001100
          152 -568 hlineto
          hintmask 11100100
          -11 callgsubr
        </CharString>
        <CharString name="l">
          -504 -70 callsubr
        </CharString>
        <CharString name="ldot">
          -146 -70 callsubr
        </CharString>
        <CharString name="less">
          139 126 -21 986 -20 hstem
          1030 928 rmoveto
          163 vlineto
          -917 -425 rlineto
          -136 vlineto
          917 -425 rlineto
          164 vlineto
          -726 330 rlineto
          endchar
        </CharString>
        <CharString name="lessequal">
          -17 callsubr
          213 vmoveto
          162 vlineto
          -660 356 660 361 rlineto
          161 vlineto
          -879 -479 rlineto
          -84 vlineto
          endchar
        </CharString>
        <CharString name="logicalnot">
          53 350 -21 393 141 hstem
          876 117 vstem
          25 callsubr
          -393 117 534 vlineto
          endchar
        </CharString>
        <CharString name="lozenge">
          62 21 -21 1462 -20 hstem
          1067 731 rmoveto
          -459 731 rlineto
          -94 hlineto
          -459 -733 459 -729 rlineto
          94 hlineto
          285 731 rmoveto
          -330 -551 -334 551 334 543 rlineto
          endchar
        </CharString>
        <CharString name="lslash">
          -504 -70 callgsubr
          893 119 -78 -26 callgsubr
          36 296 -296 -9 callgsubr
          hintmask 11000100
          518 -10 callgsubr
          vlineto
          hintmask 11001000
          -135 426 hlineto
          121 45 rlineto
          136 vlineto
          -121 -47 rlineto
          hintmask 10100010
          514 -345 -140 149 -450 vlineto
          -119 -46 rlineto
          -129 vlineto
          119 44 rlineto
          -353 vlineto
          hintmask 11010000
          -11 callgsubr
        </CharString>
        <CharString name="m">
          627 -21 callgsubr
          hstemhm
          52 354 -354 480 -323 197 363 198 364 195 hintmask 11001110
          209 709 5 callgsubr
          hintmask 11100110
          -157 -19 callsubr
          hintmask 11010110
          480 -55 callsubr
          hintmask 11100110
          -126 452 hlineto
          74 87 65 44 81 hhcurveto
          98 32 -61 -127 hvcurveto
          -382 -109 -141 432 141 -125 447 vlineto
          62 59 90 61 84 hhcurveto
          101 30 -69 -114 hvcurveto
          -391 -116 -137 442 137 -131 458 vlineto
          166 -96 105 -169 -114 -92 -49 -91 -118 vhcurveto
          90 -46 -80 50 -114 hhcurveto
          -102 -95 -47 -76 -94 hvcurveto
          0 -2 69 37 vvcurveto
          -347 -56 callsubr
          endchar
        </CharString>
        <CharString name="macron">
          -467 1086 85 hstem
          131 1086 rmoveto
          326 85 -326 hlineto
          endchar
        </CharString>
        <CharString name="minus">
          -130 722 141 hstem
          25 callsubr
          141 vlineto
          endchar
        </CharString>
        <CharString name="mu">
          6 -356 493 33 callgsubr
          572 140 -81 callgsubr
          hintmask 10101001
          153 -356 rmoveto
          189 348 hlineto
          -7 22 27 -4 29 hhcurveto
          96 91 40 75 88 hvcurveto
          hintmask 01110001
          -48 callgsubr
          hintmask 10110100
          -147 708 -339 -56 callsubr
          hintmask 10110010
          -71 callgsubr
          47 40 hvcurveto
          625 -324 -29 callsubr
          hintmask 10101100
          127 hlineto
          endchar
        </CharString>
        <CharString name="multiply">
          -131 180 -21 667 -20 hstem
          129 241 rmoveto
          83 -82 254 249 251 -245 85 85 -250 245 255 250 -82 83 -256 -250 -250 246 -85 -85 250 -247 rlineto
          endchar
        </CharString>
        <CharString name="n">
          45 -21 callgsubr
          -6 callsubr
          hintmask 11001100
          209 709 5 callgsubr
          hintmask 11100100
          -144 -19 callsubr
          hintmask 11010100
          463 -55 callsubr
          hintmask 11100100
          -75 callsubr
        </CharString>
        <CharString name="nacute">
          45 -21 callgsubr
          94 306 -6 callsubr
          hintmask 00100000
          528 -45 callsubr
          hintmask 11000110
          -153 -251 5 callgsubr
          hintmask 11010010
          -144 -19 callsubr
          hintmask 11001010
          463 -55 callsubr
          hintmask 11010010
          -75 callsubr
        </CharString>
        <CharString name="nbspace">
          -630 endchar
        </CharString>
        <CharString name="nine">
          -54 -19 153 315 160 472 152 hstemhm
          86 185 449 197 vstemhm
          478 609 rmoveto
          -131 -76 92 133 143 72 104 139 162 60 -134 -231 16 hvcurveto
          -73 -67 -106 -34 -69 hhcurveto
          -22 -628 rmoveto
          309 152 243 394 402 -148 213 -293 -244 -146 -166 -250 -217 146 -151 211 110 101 34 68 70 hvcurveto
          -282 -3 -93 -135 -152 hhcurveto
          hintmask 11111000
          -113 -67 64 109 -18 hvcurveto
          -166 1 9 -195 131 -130 204 -2 rlinecurve
          endchar
        </CharString>
        <CharString name="notequal">
          85 250 354 -143 143 254 143 -143 354 hstemhm
          hintmask 10100000
          129 1001 rmoveto
          -143 403 vlineto
          -67 -254 rlineto
          -336 hlineto
          hintmask 01100000
          -143 299 vlineto
          hintmask 10100000
          -53 -211 rlineto
          145 hlineto
          hintmask 01100000
          53 211 rlineto
          443 143 -406 hlineto
          66 254 rlineto
          340 143 -303 hlineto
          hintmask 10010000
          55 211 rlineto
          -143 hlineto
          hintmask 10100000
          -56 -211 rlineto
          endchar
        </CharString>
        <CharString name="ntilde">
          45 259 0 110 196 endchar
        </CharString>
        <CharString name="numbersign">
          185 -11 481 -134 134 288 135 -135 481 hstemhm
          hintmask 10100000
          349 -11 rmoveto
          hintmask 01100000
          58 347 rlineto
          325 hlineto
          hintmask 10100000
          -57 -347 rlineto
          149 hlineto
          hintmask 01100000
          58 347 rlineto
          266 134 -239 hlineto
          46 288 rlineto
          205 135 -179 hlineto
          hintmask 10010000
          60 346 rlineto
          -151 hlineto
          hintmask 10100000
          -59 -346 rlineto
          -322 hlineto
          hintmask 10010000
          58 346 rlineto
          -150 hlineto
          hintmask 10100000
          -58 -346 rlineto
          -259 -135 231 hlineto
          -46 -288 rlineto
          -198 hlineto
          hintmask 01100000
          -134 170 vlineto
          hintmask 10100000
          -56 -347 rlineto
          279 769 rmoveto
          324 hlineto
          -46 -288 rlineto
          -324 hlineto
          endchar
        </CharString>
        <CharString name="o">
          -48 callsubr
          hstem
          -37 callsubr
          vstem
          -102 callsubr
          endchar
        </CharString>
        <CharString name="oacute">
          -48 callsubr
          94 306 hstemhm
          -37 callsubr
          hintmask 00100000
          489 -45 callsubr
          hintmask 11011000
          437 -536 -79 callsubr
        </CharString>
        <CharString name="ocircumflex">
          -48 callsubr
          93 329 hstemhm
          -37 callsubr
          hintmask 00100000
          410 959 -95 callsubr
          hintmask 11011000
          525 -535 -79 callsubr
        </CharString>
        <CharString name="odieresis">
          -31 182 0 111 200 endchar
        </CharString>
        <CharString name="oe">
          655 -19 151 251 118 210 155 hstem
          63 205 492 206 vstem
          1508 241 -100 callsubr
          -148 -126 -65 -105 -84 vhcurveto
          105 -79 -123 65 -150 hhcurveto
          -87 callgsubr
          151 121 65 103 79 hvcurveto
          -104 82 127 -64 161 hhcurveto
          173 134 58 98 75 hvcurveto
          -856 287 -101 callsubr
          209 77 -91 callsubr
          endchar
        </CharString>
        <CharString name="ogonek">
          -473 -353 120 233 -20 hstem
          137 129 vstem
          197 hmoveto
          -48 -77 -12 -48 -52 vvcurveto
          -104 76 -72 104 47 32 10 27 55 vhcurveto
          103 vlineto
          -15 -32 -24 -5 -31 hhcurveto
          -65 -33 36 71 43 10 35 35 48 hvcurveto
          endchar
        </CharString>
        <CharString name="ograve">
          -31 240 0 111 11 callsubr
        </CharString>
        <CharString name="one">
          -311 -75 callgsubr
          hstemhm
          116 369 -196 196 hintmask 11010000
          485 7 callgsubr
          1074 -381 -140 185 -934 vlineto
          hintmask 11100000
          -173 -141 532 -55 callsubr
          endchar
        </CharString>
        <CharString name="onehalf">
          735 -15 -21 36 106 242 103 117 316 -107 107 228 103 37 -20 hstemhm
          104 270 764 24 callgsubr
          hintmask 0010010100000000
          374 -28 callgsubr
          -2 -451 rmoveto
          -51 callsubr
          hintmask 0101000010100000
          631 -1252 -54 callsubr
          hintmask 0100100011000000
          -45 callgsubr
        </CharString>
        <CharString name="onequarter">
          691 -15 -21 36 106 125 101 16 103 375 22 264 103 37 -20 hstemhm
          106 270 1009 133 hintmask 0001010100000000
          376 -28 callgsubr
          -4 -451 rmoveto
          -51 callsubr
          hintmask 0110100010000000
          466 -1145 -90 callgsubr
        </CharString>
        <CharString name="onesuperior">
          -453 348 103 661 103 hstemhm
          104 270 vstemhm
          374 -3 callgsubr
          hintmask 11100000
          -16 callgsubr
          endchar
        </CharString>
        <CharString name="ordfeminine">
          -364 621 79 187 76 146 85 hstem
          61 104 267 106 vstem
          636 718 rmoveto
          -98 297 hlineto
          118 -85 61 -137 -107 -79 -34 -67 -49 vhcurveto
          88 -49 rlineto
          42 29 45 23 60 hhcurveto
          79 50 -35 -70 hvcurveto
          -70 vlineto
          18 -49 -50 11 -47 hhcurveto
          -127 -98 -55 -121 -91 79 -75 114 68 59 23 50 61 hvcurveto
          -62 194 vlineto
          -204 131 rmoveto
          -40 -45 -61 -23 -55 hhcurveto
          -67 -39 38 50 74 59 25 71 48 50 -15 -16 39 hvcurveto
          endchar
        </CharString>
        <CharString name="ordmasculine">
          -356 670 95 336 97 hstem
          68 112 344 113 vstem
          180 934 rmoveto
          96 74 71 99 97 74 -71 -96 -96 -74 -73 -97 -99 -74 73 96 vhcurveto
          -112 hmoveto
          -151 122 -113 163 163 121 113 151 152 -121 112 -163 -163 -122 -112 -152 vhcurveto
          endchar
        </CharString>
        <CharString name="oslash">
          -93 -105 -21 106 131 581 132 102 -20 hstem
          58 159 534 160 vstem
          483 -20 rmoveto
          261 167 191 231 148 -67 128 -114 75 hvcurveto
          66 130 -94 43 -65 -127 rlineto
          17 -45 -51 8 -56 hhcurveto
          -261 -166 -191 -231 -151 69 -135 121 -75 hvcurveto
          -63 -124 94 -43 64 125 rlineto
          -12 43 46 -7 51 hhcurveto
          -266 422 rmoveto
          164 102 126 164 32 30 -5 -10 29 vhcurveto
          -260 -509 rlineto
          -63 53 -34 84 97 vvcurveto
          266 -291 rmoveto
          -28 -26 3 6 -23 hvcurveto
          257 503 rlineto
          56 -52 32 -78 -91 vvcurveto
          -166 -103 -125 -165 vhcurveto
          endchar
        </CharString>
        <CharString name="otilde">
          -48 callsubr
          98 -15 callsubr
          -37 callsubr
          hintmask 11000110
          -102 callsubr
          hintmask 00010000
          -637 549 -89 callgsubr
        </CharString>
        <CharString name="p">
          62 -330 150 161 -42 callgsubr
          hstemhm
          28 343 -343 511 -364 196 489 203 hintmask 11101010
          28 -330 rmoveto
          511 150 hlineto
          hintmask 11110010
          -168 273 hlineto
          -74 72 107 -38 108 hhcurveto
          227 178 178 269 246 -158 192 -246 -112 -93 -39 -81 -83 hvcurveto
          -3 103 rlineto
          -340 -56 callsubr
          hintmask 11100110
          147 -889 hlineto
          hintmask 11101010
          -147 hlineto
          579 317 rmoveto
          hintmask 11110010
          -124 -87 85 23 -25 hvcurveto
          345 vlineto
          24 21 88 97 126 hhcurveto
          159 95 -125 -167 -163 -93 -119 -160 hvcurveto
          endchar
        </CharString>
        <CharString name="paragraph">
          36 -332 -21 1402 137 hstemhm
          50 496 -135 135 201 135 hintmask 11101000
          1020 1186 rmoveto
          -569 hlineto
          -268 -133 -163 -197 hvcurveto
          hintmask 11011000
          -199 132 -151 229 -8 vhcurveto
          -821 135 1402 201 -1402 135 1402 138 vlineto
          endchar
        </CharString>
        <CharString name="parenleft">
          21 callsubr
          hstem
          79 171 -171 459 vstem
          79 487 rmoveto
          -347 201 -211 257 -87 vhcurveto
          2 140 rlineto
          -180 77 -109 141 287 vvcurveto
          283 107 143 182 78 vhcurveto
          -2 139 rlineto
          -257 -89 -201 -208 -346 vvcurveto
          endchar
        </CharString>
        <CharString name="parenright">
          21 callsubr
          hstemhm
          39 460 -171 171 hintmask 11100000
          499 487 rmoveto
          345 -201 209 -258 89 vhcurveto
          -1 -139 rlineto
          hintmask 11010000
          182 -78 107 -143 -283 vvcurveto
          hintmask 11100000
          -287 -109 -141 -180 -77 vhcurveto
          1 -140 rlineto
          258 87 201 211 347 vvcurveto
          endchar
        </CharString>
        <CharString name="partialdiff">
          -130 -19 111 566 103 172 300 -108 108 hstemhm
          77 257 421 99 hintmask 11101100
          554 1125 rmoveto
          132 69 -168 -232 -19 -2 -36 -4 -22 hvcurveto
          -8 hlineto
          74 -39 -67 39 -108 hhcurveto
          -325 -125 -305 -180 -153 73 -142 217 357 130 441 298 322 -132 191 -260 -165 -94 -73 -105 -64 49 -58 133 hvcurveto
          hintmask 11011100
          86 57 106 112 vhcurveto
          -94 -1033 rmoveto
          -80 -46 66 106 145 76 249 175 80 41 -70 -80 20 hvcurveto
          -218 -32 -117 -198 -117 hhcurveto
          endchar
        </CharString>
        <CharString name="percent">
          611 -35 -21 31 114 420 116 -30 114 421 115 2 -20 hstemhm
          68 167 220 168 426 167 220 169 hintmask 1101101111000000
          623 920 rmoveto
          215 -117 110 -161 -160 -117 -110 -215 -215 117 -110 160 161 117 110 215 vhcurveto
          -168 -2 rmoveto
          -139 -42 -70 -67 -67 -44 61 152 147 44 61 65 68 43 -59 -153 vhcurveto
          -160 -918 rmoveto
          83 -56 956 1246 rlineto
          hintmask 1110011111000000
          -79 57 rlineto
          350 -948 rmoveto
          216 -118 110 -161 -161 -116 -108 -218 -216 116 -108 161 161 118 109 215 vhcurveto
          -169 hmoveto
          -140 -41 -70 -68 -68 -43 61 152 147 44 60 65 68 43 -59 -151 vhcurveto
          endchar
        </CharString>
        <CharString name="period">
          -560 0 238 hstem
          120 247 vstem
          120 238 rmoveto
          -238 247 238 vlineto
          endchar
        </CharString>
        <CharString name="periodcentered">
          -646 446 211 hstem
          86 227 vstem
          86 446 rmoveto
          227 211 -227 hlineto
          endchar
        </CharString>
        <CharString name="pi">
          34 0 112 -104 -21 658 204 hstemhm
          53 364 222 151 hintmask 10111000
          1018 849 rmoveto
          -708 hlineto
          -181 -76 -139 -165 hvcurveto
          93 hlineto
          58 9 30 42 61 hhcurveto
          73 hlineto
          -48 -352 rlineto
          -165 -24 -98 -46 -67 hhcurveto
          -82 106 vlineto
          158 54 77 167 7 hvcurveto
          20 401 rlineto
          265 hlineto
          -27 -159 -26 -205 -107 vvcurveto
          hintmask 01111000
          -137 69 -50 114 59 50 18 25 26 vhcurveto
          98 vlineto
          hintmask 10111000
          -8 -21 -30 -8 -31 hhcurveto
          -48 -37 29 85 82 5 186 13 151 hvcurveto
          210 hlineto
          endchar
        </CharString>
        <CharString name="plus">
          96 118 -21 408 149 407 -20 hstem
          498 159 vstem
          657 1061 rmoveto
          -159 -407 -418 -149 418 -408 159 408 419 149 -419 hlineto
          endchar
        </CharString>
        <CharString name="plusminus">
          85 0 145 514 146 366 -20 hstem
          498 147 vstem
          -22 callgsubr
          659 vmoveto
          146 -367 366 -147 -366 -365 -146 365 -366 147 366 vlineto
          endchar
        </CharString>
        <CharString name="product">
          -17 0 67 1072 76 hstemhm
          46 314 -19 callgsubr
          326 198 -198 314 hintmask 11100100
          1000 hmoveto
          67 -53 vlineto
          hintmask 11101000
          -34 -26 8 67 -3 hvcurveto
          926 vlineto
          71 29 10 34 vhcurveto
          hintmask 11100100
          53 66 -954 -66 52 hlineto
          hintmask 11011000
          33 29 -10 -67 2 hvcurveto
          -924 vlineto
          -71 -27 -10 -37 vhcurveto
          hintmask 11101000
          -52 -67 431 67 -53 hlineto
          -36 -28 10 71 hvcurveto
          991 326 -991 vlineto
          -71 -28 -10 -36 vhcurveto
          -54 -67 hlineto
          endchar
        </CharString>
        <CharString name="q">
          65 -330 149 162 -42 callgsubr
          hstemhm
          60 203 322 511 -345 198 hintmask 11110100
          753 849 rmoveto
          -2 -103 rlineto
          81 -79 -91 39 -109 hhcurveto
          -253 -159 -192 -245 -271 177 -177 228 109 105 38 75 72 hvcurveto
          -275 vlineto
          hintmask 11111000
          -166 -149 511 149 hlineto
          hintmask 11110100
          -147 890 hlineto
          hintmask 11111000
          147 140 hlineto
          -833 -430 rmoveto
          167 90 125 167 vhcurveto
          hintmask 11110100
          121 89 -98 -26 21 hvcurveto
          -334 vlineto
          -25 -23 -90 -91 -123 hhcurveto
          -159 -93 119 163 hvcurveto
          endchar
        </CharString>
        <CharString name="question">
          -264 0 209 680 344 -135 135 hstemhm
          44 173 83 139 -139 172 126 179 hintmask 11011010
          439 340 rmoveto
          11 202 87 63 82 55 rrcurveto
          72 48 86 60 146 vvcurveto
          194 -159 125 -201 -190 -183 -89 -255 vhcurveto
          173 hlineto
          hintmask 10110110
          133 67 76 135 99 80 -73 -111 vhcurveto
          -221 -298 107 -460 vvcurveto
          hintmask 11011010
          -23 -131 rmoveto
          -209 vlineto
          hintmask 11010110
          195 209 hlineto
          endchar
        </CharString>
        <CharString name="questiondown">
          -264 -37 135 -135 344 680 209 hstemhm
          19 179 126 172 -139 139 83 173 hintmask 01110110
          357 856 rmoveto
          -11 -202 -87 -63 -82 -55 rrcurveto
          -72 -48 -86 -60 -146 vvcurveto
          -194 159 -125 201 190 183 89 255 vhcurveto
          -173 hlineto
          hintmask 10111010
          -133 -67 -76 -135 -99 -80 73 111 vhcurveto
          221 298 -107 460 vvcurveto
          hintmask 01110110
          23 131 rmoveto
          209 vlineto
          hintmask 01111010
          -195 -209 hlineto
          endchar
        </CharString>
        <CharString name="quotedbl">
          -241 757 465 hstem
          688 1222 24 callsubr
          121 hlineto
          -284 465 24 callsubr
          122 hlineto
          endchar
        </CharString>
        <CharString name="quotedblbase">
          -275 -244 447 -215 215 hstemhm
          123 203 157 203 hintmask 01110000
          483 -12 rmoveto
          94 hlineto
          -2 -77 callgsubr
          hintmask 01110000
          -360 -215 rmoveto
          94 hlineto
          -2 -77 callgsubr
          endchar
        </CharString>
        <CharString name="quotedblleft">
          -369 787 216 -216 446 hstemhm
          86 203 103 202 hintmask 10110000
          594 1003 rmoveto
          -92 -26 callsubr
          202 vlineto
          hintmask 10110000
          -305 216 rmoveto
          -93 -26 callsubr
          203 vlineto
          endchar
        </CharString>
        <CharString name="quotedblright">
          -383 768 447 -215 215 hstemhm
          88 203 96 203 hintmask 01110000
          88 1000 rmoveto
          95 hlineto
          -3 -77 callgsubr
          hintmask 01110000
          299 -215 rmoveto
          95 hlineto
          -3 -77 callgsubr
          endchar
        </CharString>
        <CharString name="quoteleft">
          -678 787 446 hstem
          86 203 vstem
          289 1003 rmoveto
          -93 0 callgsubr
          -23 callgsubr
          203 vlineto
          endchar
        </CharString>
        <CharString name="quoteright">
          -696 768 447 hstem
          88 203 vstem
          88 1000 14 callgsubr
          -78 callgsubr
          endchar
        </CharString>
        <CharString name="quotesinglbase">
          -671 -244 447 -194 -21 hstemhm
          88 203 hintmask 01100000
          88 -12 14 callgsubr
          hintmask 10100000
          -78 callgsubr
          endchar
        </CharString>
        <CharString name="quotesingle">
          -558 757 465 hstem
          362 1222 rmoveto
          -216 hlineto
          49 -465 rlineto
          122 hlineto
          endchar
        </CharString>
        <CharString name="r">
          -53 callsubr
          -63 callsubr
          hintmask 11000100
          -95 callgsubr
          hintmask 10110000
          -1 192 rlineto
          -335 -56 callsubr
          hintmask 10101000
          1 callsubr
          hintmask 11010000
          -43 callsubr
          endchar
        </CharString>
        <CharString name="radical">
          11 7 -21 1687 -20 hstem
          1169 1673 rmoveto
          -135 hlineto
          -436 -1429 -233 667 rlineto
          -302 -123 166 hlineto
          287 -802 rlineto
          -55 callsubr
          endchar
        </CharString>
        <CharString name="rcaron">
          -53 callsubr
          67 6 callgsubr
          -63 callsubr
          hintmask 00011000
          144 -84 callgsubr
          hintmask 11000001
          171 -1030 -98 callgsubr
          hintmask 10100100
          -1 192 rlineto
          -335 -56 callsubr
          hintmask 10100010
          1 callsubr
          hintmask 11000100
          -43 callsubr
          endchar
        </CharString>
        <CharString name="rcommaaccent">
          -254 -40 callgsubr
          543 182 5 callsubr
          -63 callsubr
          -144 -31 callgsubr
          hintmask 0011000100000000
          -95 callgsubr
          hintmask 0010110000000000
          -1 192 rlineto
          -335 -56 callsubr
          hintmask 0010101000000000
          1 callsubr
          hintmask 0011010000000000
          -43 callsubr
          hintmask 0011000100000000
          hintmask 1100000010000000
          -324 -526 -80 callsubr
        </CharString>
        <CharString name="registered">
          384 -19 108 218 74 -74 365 189 74 190 108 hstemhm
          77 138 310 113 213 112 267 139 hintmask 1101111110000000
          722 1233 rmoveto
          -353 -292 -247 -380 -379 292 -246 353 354 293 246 379 379 -293 248 -354 hvcurveto
          -108 vmoveto
          279 229 -208 -314 -310 -229 -204 -279 -279 -228 204 310 315 228 207 279 hvcurveto
          -284 -818 rmoveto
          282 74 -82 213 82 hlineto
          152 -287 rlineto
          166 74 -88 hlineto
          -125 226 rlineto
          94 24 44 56 83 vvcurveto
          116 -90 49 -127 vhcurveto
          -308 -74 87 -480 -87 hlineto
          hintmask 1011111110000000
          200 291 rmoveto
          189 109 vlineto
          68 36 -40 -53 -47 -24 -49 -87 hvcurveto
          endchar
        </CharString>
        <CharString name="ring">
          -76 callgsubr
        </CharString>
        <CharString name="ring.cap">
          -76 callgsubr
        </CharString>
        <CharString name="s">
          -187 0 -29 callgsubr
          hstemhm
          77 177 346 17 callsubr
          hintmask 10101100
          15 callsubr
          hintmask 01011010
          -69 callgsubr
          hintmask 10101100
          -73 callsubr
          hintmask 10101010
          -59 callsubr
          hintmask 10101100
          67 -156 vlineto
          endchar
        </CharString>
        <CharString name="scaron">
          -187 0 -29 callgsubr
          67 6 callgsubr
          hstemhm
          77 177 346 17 callsubr
          hintmask 1010001100000000
          15 callsubr
          hintmask 0101001010000000
          -69 callgsubr
          hintmask 1010001100000000
          -73 callsubr
          hintmask 1010001010000000
          -59 callsubr
          hintmask 1010001100000000
          67 -156 vlineto
          hintmask 0000110000000000
          91 888 -96 callsubr
          endchar
        </CharString>
        <CharString name="section">
          -169 -185 88 1038 304 -90 90 hstemhm
          106 146 -110 138 -138 164 297 155 -117 141 -113 160 hintmask 1101000100000000
          452 -185 rmoveto
          218 112 121 174 64 -22 65 -36 46 hvcurveto
          hintmask 1010010010000000
          58 36 47 78 79 vvcurveto
          141 -97 78 -230 111 vhcurveto
          -124 58 -72 32 103 vvcurveto
          99 60 55 92 vhcurveto
          hintmask 1100101000000000
          116 29 -118 -96 hvcurveto
          100 55 50 67 108 -100 79 -192 -188 -136 -96 -167 -90 33 -66 38 -40 hvcurveto
          hintmask 1101000100000000
          -63 -32 -44 -63 -73 vvcurveto
          -129 71 -90 182 -89 vhcurveto
          243 -120 39 -38 -90 vvcurveto
          -96 -62 -63 -105 vhcurveto
          hintmask 1100100010000000
          -128 -66 107 144 hvcurveto
          -86 -60 -44 -85 -99 72 -111 246 hvcurveto
          217 606 rmoveto
          -30 -10 -24 -12 -17 vhcurveto
          -43 29 -50 28 -71 35 rrcurveto
          hintmask 1101000010000000
          -175 87 -56 40 91 vvcurveto
          28 10 26 16 18 vhcurveto
          53 -37 65 -29 73 -36 rrcurveto
          160 -78 40 -58 -73 vvcurveto
          endchar
        </CharString>
        <CharString name="semicolon">
          -555 -172 -21 273 244 297 245 hstemhm
          129 254 -124 124 hintmask 11110000
          129 324 rmoveto
          -244 vlineto
          hintmask 11101000
          130 hlineto
          -110 -26 -51 -107 -9 vhcurveto
          -103 vlineto
          203 2 54 94 179 vvcurveto
          243 vlineto
          hintmask 11110000
          -257 541 15 callgsubr
        </CharString>
        <CharString name="seven">
          -146 -70 callgsubr
          751 323 -141 141 hstemhm
          76 158 76 202 hintmask 11011000
          661 7 callgsubr
          -149 hlineto
          9 307 154 400 200 236 rrcurveto
          131 -799 -323 158 vlineto
          hintmask 10111000
          182 440 vlineto
          -185 -238 -156 -366 -23 -329 rrcurveto
          -163 -141 514 hlineto
          endchar
        </CharString>
        <CharString name="six">
          -55 -19 152 479 155 147 319 -145 145 hstemhm
          87 197 448 185 hintmask 11101100
          284 524 rmoveto
          59 67 105 29 69 hhcurveto
          133 74 -94 -137 -143 -74 -105 -135 -162 -62 145 246 -15 hvcurveto
          607 390 rmoveto
          194 -13 -134 125 -208 hhcurveto
          -303 -146 -249 -386 -392 145 -225 297 242 146 170 246 217 -144 153 -212 -110 -101 -31 -62 -70 hvcurveto
          hintmask 11011100
          252 2 92 162 168 hhcurveto
          hintmask 11101100
          102 65 -69 -105 21 hvcurveto
          endchar
        </CharString>
        <CharString name="slash">
          -195 -15 -21 1288 -20 hstem
          80 hmoveto
          -51 callsubr
          endchar
        </CharString>
        <CharString name="space">
          -602 endchar
        </CharString>
        <CharString name="sterling">
          -11 -18 174 -174 343 -343 393 184 133 198 343 -153 153 hstemhm
          218 177 361 171 -80 127 hintmask 0011101100000000
          117 559 rmoveto
          222 hlineto
          44 -65 35 -76 -74 vvcurveto
          -12 0 -12 -3 -11 vhcurveto
          44 -52 -49 22 -60 hhcurveto
          -139 -80 -104 -102 -95 72 -92 154 80 65 45 69 51 hvcurveto
          -67 86 81 -47 96 hhcurveto
          hintmask 0101101010000000
          205 49 121 222 hvcurveto
          -127 hlineto
          hintmask 1001011100000000
          -110 -7 -14 -59 -106 hhcurveto
          -62 -61 37 39 -64 hvcurveto
          25 61 11 55 51 vvcurveto
          55 -13 51 -26 54 vhcurveto
          325 133 -386 hlineto
          -38 71 -36 74 73 vvcurveto
          110 72 60 126 vhcurveto
          hintmask 1001101100000000
          122 41 -82 -108 hvcurveto
          171 hlineto
          209 -121 134 -220 -226 -142 -122 -210 -79 18 -67 30 -63 vhcurveto
          -149 hlineto
          174 -559 rmoveto
          -11 -20 -16 -5 -13 hhcurveto
          -29 -21 28 27 34 28 27 40 17 20 -6 -15 23 hvcurveto
          -10 -29 -10 -26 -9 -24 rrcurveto
          endchar
        </CharString>
        <CharString name="summation">
          -76 0 165 972 78 hstem
          212 165 rmoveto
          371 477 rlineto
          70 vlineto
          -322 425 rlineto
          387 hlineto
          80 30 -37 -68 7 hvcurveto
          8 -55 rlineto
          68 238 -752 -126 hlineto
          366 -482 -394 -508 rlineto
          -99 842 327 -74 vlineto
          -5 -38 rlineto
          -70 -8 -21 -54 -79 hhcurveto
          endchar
        </CharString>
        <CharString name="t">
          -464 -46 callgsubr
          307 -20 hstemhm
          160 197 -197 409 hintmask 11101000
          -25 callsubr
          hintmask 11110000
          -38 callgsubr
          endchar
        </CharString>
        <CharString name="thorn">
          -225 -330 144 167 156 573 156 32 callsubr
          -96 341 -19 callgsubr
          487 207 hintmask 11111010
          -96 -330 rmoveto
          341 434 hlineto
          -81 65 114 -42 111 hhcurveto
          227 27 callsubr
          -158 21 callgsubr
          -86 hvcurveto
          465 -345 -29 callsubr
          hintmask 11110110
          147 -1261 hlineto
          hintmask 11111010
          -143 hlineto
          576 323 rmoveto
          -123 -89 91 25 -23 hvcurveto
          334 vlineto
          26 21 88 97 125 hhcurveto
          159 94 -124 -167 -166 -92 -116 -160 hvcurveto
          endchar
        </CharString>
        <CharString name="three">
          -51 -19 152 -152 383 192 154 190 333 -153 153 hstemhm
          105 180 91 501 -195 195 5 callsubr
          -157 205 hintmask 1011010001000000
          64 364 rmoveto
          -257 6 164 -126 244 hhcurveto
          275 172 147 216 151 -86 106 -167 41 hvcurveto
          hintmask 1011010100000000
          135 39 70 108 119 vvcurveto
          206 -152 119 -241 -232 -139 -128 -204 -8 vhcurveto
          180 -1 rlineto
          hintmask 1010110100000000
          103 4 53 77 138 hhcurveto
          135 67 -77 -97 hvcurveto
          hintmask 1011011000000000
          -160 -107 -36 -199 vhcurveto
          -154 vlineto
          hintmask 1011010010000000
          205 139 -42 -174 -119 -87 -88 -154 hvcurveto
          hintmask 0111011000000000
          -149 -73 86 145 -13 hvcurveto
          endchar
        </CharString>
        <CharString name="threequarters">
          948 -15 -21 36 106 125 101 -1 108 -108 275 139 111 -30 22 145 241 -112 112 18 -20 2 callsubr
          823 133 hintmask 0001010100001000
          -42 callsubr
          hintmask 0001010010100000
          -65 callgsubr
          hintmask 0001010100010000
          -7 callsubr
          hintmask 0000110100100000
          hintmask 1000000001000000
          446 -607 rmoveto
          -51 callsubr
          hintmask 0110001000000100
          436 -1145 -90 callgsubr
        </CharString>
        <CharString name="threesuperior">
          -103 331 108 306 111 137 241 -112 112 2 callsubr
          hintmask 11100010
          -42 callsubr
          hintmask 11011000
          -65 callgsubr
          hintmask 11100100
          -7 callsubr
          endchar
        </CharString>
        <CharString name="tilde">
          -473 964 -15 callsubr
          hintmask 01000000
          109 973 -36 callgsubr
          hintmask 10000000
          -91 callgsubr
          hintmask 00100000
          -72 callgsubr
        </CharString>
        <CharString name="tilde.cap">
          -473 971 148 -77 77 -77 147 hstemhm
          hintmask 01000000
          69 980 rmoveto
          40 8 17 22 43 hhcurveto
          hintmask 10000000
          78 92 -71 112 hhcurveto
          105 63 80 133 11 hvcurveto
          -78 hlineto
          -43 -10 -26 -22 -41 hhcurveto
          hintmask 00100000
          -77 -99 70 -102 hhcurveto
          -87 -76 -62 -147 -13 hvcurveto
          endchar
        </CharString>
        <CharString name="trademark">
          1009 361 112 438 299 -112 112 hstem
          64 126 158 165 156 125 167 124 622 156 vstem
          83 33 callsubr
          -299 126 187 158 -542 -123 -112 409 112 -121 542 156 -187 125 299 vlineto
          167 -654 rmoveto
          -108 -112 333 112 -101 497 hlineto
          278 -609 rlineto
          64 hlineto
          270 610 rlineto
          -498 -101 -112 365 112 -108 542 108 112 -342 vlineto
          -222 -520 -217 520 rlineto
          -327 -112 108 hlineto
          endchar
        </CharString>
        <CharString name="two">
          -64 -70 callgsubr
          -141 384 408 441 -149 34 callsubr
          104 173 394 210 -149 149 hintmask 01101010
          881 hmoveto
          384 -149 vlineto
          hintmask 10101010
          -243 -464 vlineto
          92 354 521 59 349 vvcurveto
          164 -117 166 -278 -253 -129 -142 -299 vhcurveto
          173 hlineto
          hintmask 01011100
          201 3 54 91 154 hhcurveto
          117 66 -68 -108 -135 -149 -96 -109 -90 hvcurveto
          -167 -137 -173 -159 -1 -291 rrcurveto
          endchar
        </CharString>
        <CharString name="twosuperior">
          -121 349 106 462 316 -107 107 hstemhm
          197 24 callgsubr
          hintmask 11010100
          752 349 -54 callsubr
          hintmask 10111000
          -45 callgsubr
        </CharString>
        <CharString name="u">
          -41 callsubr
          -81 callgsubr
          hintmask 10110100
          -63 callgsubr
          hintmask 10110010
          -88 callgsubr
          hintmask 10101001
          -86 callgsubr
          hintmask 01110001
          -48 callgsubr
          endchar
        </CharString>
        <CharString name="uacute">
          -41 callsubr
          111 306 -93 callsubr
          -522 819 -85 callsubr
        </CharString>
        <CharString name="ucircumflex">
          27 247 0 117 23 callgsubr
        </CharString>
        <CharString name="udieresis">
          -41 callsubr
          141 217 -49 callsubr
          -121 225 100 339 -260 224 -162 198 -198 345 hintmask 1010100100000000
          -63 callgsubr
          hintmask 1010100001000000
          -88 callgsubr
          hintmask 1010010000100000
          -86 callgsubr
          hintmask 0110100000100000
          -48 callgsubr
          hintmask 1010100100000000
          hintmask 0001001010000000
          -407 1074 -92 callgsubr
        </CharString>
        <CharString name="ugrave">
          27 269 0 117 11 callsubr
        </CharString>
        <CharString name="underscore">
          -120 -137 106 hstem
          -31 vmoveto
          -106 941 106 vlineto
          endchar
        </CharString>
        <CharString name="uni0001">
          endchar
        </CharString>
        <CharString name="uni0002">
          endchar
        </CharString>
        <CharString name="uni0003">
          endchar
        </CharString>
        <CharString name="uni0004">
          endchar
        </CharString>
        <CharString name="uni0005">
          endchar
        </CharString>
        <CharString name="uni0006">
          endchar
        </CharString>
        <CharString name="uni0007">
          endchar
        </CharString>
        <CharString name="uni0008">
          endchar
        </CharString>
        <CharString name="uni0009">
          endchar
        </CharString>
        <CharString name="uni0010">
          endchar
        </CharString>
        <CharString name="uni0011">
          endchar
        </CharString>
        <CharString name="uni0012">
          endchar
        </CharString>
        <CharString name="uni0013">
          endchar
        </CharString>
        <CharString name="uni0014">
          endchar
        </CharString>
        <CharString name="uni0015">
          endchar
        </CharString>
        <CharString name="uni0016">
          endchar
        </CharString>
        <CharString name="uni0017">
          endchar
        </CharString>
        <CharString name="uni0018">
          endchar
        </CharString>
        <CharString name="uni0019">
          endchar
        </CharString>
        <CharString name="uni00AD">
          647 endchar
        </CharString>
        <CharString name="uni0200">
          -53 callgsubr
          106 311 hstemhm
          -103 callgsubr
          hintmask 00010000
          -137 744 -106 callgsubr
        </CharString>
        <CharString name="uni0201">
          -89 callsubr
          89 311 -97 callgsubr
          -111 587 -106 callgsubr
        </CharString>
        <CharString name="uni0202">
          -53 callgsubr
          111 239 -120 120 hstemhm
          -103 callgsubr
          hintmask 00010000
          -299 749 -94 callsubr
        </CharString>
        <CharString name="uni0203">
          -89 callsubr
          94 239 -120 120 -47 callsubr
          hintmask 0011100110000000
          -62 callgsubr
          hintmask 1001100110000000
          -21 callsubr
          hintmask 0101100110000000
          -103 callsubr
          hintmask 0011100110000000
          -76 callsubr
          hintmask 1001100110000000
          -92 callsubr
          hintmask 0000010000000000
          -273 592 -60 callgsubr
        </CharString>
        <CharString name="uni0204">
          -74 callgsubr
          106 311 -83 callsubr
          557 1321 -106 callgsubr
        </CharString>
        <CharString name="uni0205">
          -68 callgsubr
          89 311 18 callsubr
          hintmask 11101000
          -82 callgsubr
          -228 454 -106 callgsubr
        </CharString>
        <CharString name="uni0206">
          -74 callgsubr
          111 239 -120 120 -16 callsubr
          hintmask 0111000111000000
          -34 callsubr
          hintmask 1010100111000000
          -88 callsubr
          hintmask 1011000111000000
          -44 callsubr
          hintmask 0110100111000000
          -58 callgsubr
          hintmask 0000010000000000
          396 1326 -60 callgsubr
        </CharString>
        <CharString name="uni0207">
          -68 callgsubr
          94 -61 callgsubr
          61 207 hintmask 11100100
          -82 callgsubr
          -390 459 -94 callsubr
        </CharString>
        <CharString name="uni0208">
          -27 callsubr
          106 311 -54 callgsubr
          291 1321 -106 callgsubr
        </CharString>
        <CharString name="uni0209">
          -489 -22 callsubr
          106 311 -86 callsubr
          hintmask 11000100
          204 709 -87 callsubr
          hintmask 11000100
          hintmask 00100000
          245 246 -106 callgsubr
        </CharString>
        <CharString name="uni020A">
          -398 0 141 934 8 callsubr
          221 219 hintmask 11001000
          -96 callgsubr
          hintmask 00100000
          129 1326 -94 callgsubr
        </CharString>
        <CharString name="uni020B">
          -489 -46 callgsubr
          111 239 -188 216 -148 120 -86 callsubr
          hintmask 11010001
          -73 callgsubr
          hintmask 11010100
          -137 -19 callsubr
          hintmask 11010010
          470 -55 callsubr
          hintmask 11010100
          -4 callgsubr
          hintmask 11010001
          hintmask 00100000
          83 251 rmoveto
          hintmask 00001000
          -98 callsubr
        </CharString>
        <CharString name="uni020C">
          -44 callgsubr
          88 311 -90 callsubr
          27 88 -106 callgsubr
        </CharString>
        <CharString name="uni020D">
          -48 callsubr
          89 311 hstemhm
          -37 callsubr
          hintmask 11011000
          -102 callsubr
          hintmask 00100000
          -426 531 -106 callgsubr
        </CharString>
        <CharString name="uni020E">
          -44 callgsubr
          93 239 -120 120 29 callgsubr
          hintmask 11001100
          -104 callgsubr
          hintmask 00100000
          -135 93 -94 callgsubr
        </CharString>
        <CharString name="uni020F">
          -48 callsubr
          94 -61 callgsubr
          -37 callsubr
          hintmask 11001100
          -102 callsubr
          hintmask 00100000
          -588 536 -94 callgsubr
        </CharString>
        <CharString name="uni0210">
          -67 callsubr
          106 311 -4 callsubr
          hintmask 11101100
          -102 callgsubr
          hintmask 00010000
          -586 1180 -106 callgsubr
        </CharString>
        <CharString name="uni0211">
          -53 callsubr
          89 311 -63 callsubr
          hintmask 11000010
          -95 callgsubr
          hintmask 10101000
          -1 192 rlineto
          -335 -56 callsubr
          hintmask 10100100
          1 callsubr
          hintmask 11001000
          -43 callsubr
          hintmask 11000010
          hintmask 00010000
          -173 814 -106 callgsubr
        </CharString>
        <CharString name="uni0212">
          -67 callsubr
          111 239 -120 120 -4 callsubr
          hintmask 11100110
          -102 callgsubr
          hintmask 00010000
          -747 1185 -94 callsubr
        </CharString>
        <CharString name="uni0213">
          -53 callsubr
          94 239 -120 120 -63 callsubr
          hintmask 11000001
          -95 callgsubr
          hintmask 10100100
          -1 192 rlineto
          -335 -56 callsubr
          hintmask 10100010
          1 callsubr
          hintmask 11000100
          -43 callsubr
          hintmask 11000001
          hintmask 00010000
          -334 819 -94 callsubr
        </CharString>
        <CharString name="uni0214">
          -57 callgsubr
          106 311 hstemhm
          -32 callgsubr
          hintmask 11011000
          -78 callsubr
          20 1340 -106 callgsubr
        </CharString>
        <CharString name="uni0215">
          -41 callsubr
          106 311 -93 callsubr
          -470 814 -106 callgsubr
        </CharString>
        <CharString name="uni0216">
          205 -19 160 934 8 callsubr
          -32 callgsubr
          hintmask 11001100
          -78 callsubr
          -142 1345 -94 callgsubr
        </CharString>
        <CharString name="uni0217">
          27 -19 156 -116 -21 709 140 111 239 -120 120 -81 callgsubr
          hintmask 1010010100000000
          -63 callgsubr
          hintmask 1010010010000000
          -88 callgsubr
          hintmask 1010001001000000
          -86 callgsubr
          hintmask 0110010001000000
          -48 callgsubr
          hintmask 1010010100000000
          hintmask 0001000000000000
          -632 819 rmoveto
          hintmask 0000100000000000
          -67 callgsubr
          hintmask 0001000000000000
          -104 callsubr
        </CharString>
        <CharString name="uni0218">
          -52 -56 callgsubr
          -179 -18 callsubr
          148 -31 callgsubr
          48 147 -147 210 hintmask 0010001100010000
          -52 callsubr
          hintmask 0010010100100000
          -69 callsubr
          hintmask 0001010100100000
          31 callsubr
          hintmask 0000110100100000
          29 callsubr
          hintmask 0010010100100000
          -71 78 95 -37 112 hhcurveto
          hintmask 1100000010000000
          -121 -366 -80 callsubr
        </CharString>
        <CharString name="uni0219">
          -187 -57 callsubr
          -29 callgsubr
          hstemhm
          77 177 85 -31 callgsubr
          8 17 callsubr
          hintmask 0010101001000000
          15 callsubr
          hintmask 0001011000100000
          -69 callgsubr
          hintmask 0010101001000000
          -73 callsubr
          hintmask 0010101000100000
          -59 callsubr
          hintmask 0010101001000000
          67 -156 vlineto
          hintmask 1100000100000000
          252 -668 -59 callgsubr
        </CharString>
        <CharString name="uni021A">
          72 -40 callgsubr
          663 411 1 callgsubr
          47 160 240 253 -242 219 -102 125 225 160 hintmask 0011010101000000
          12 callsubr
          hintmask 0010110101000000
          -18 callgsubr
          hintmask 0011010101000000
          -271 160 411 vlineto
          hintmask 1100001000000000
          -638 -1600 -74 callsubr
          hintmask 1100001000000000
          -11 callsubr
        </CharString>
        <CharString name="uni021B">
          -464 -40 callgsubr
          568 140 307 -20 hstemhm
          160 197 -197 409 -374 -31 callgsubr
          hintmask 0011101000000000
          -25 callsubr
          hintmask 0011110000000000
          -38 callgsubr
          hintmask 1100000100000000
          159 -1094 -59 callgsubr
        </CharString>
        <CharString name="uni030F">
          -383 955 311 hstem
          373 955 -106 callgsubr
        </CharString>
        <CharString name="uni0311">
          -476 960 -61 callgsubr
          hintmask 10000000
          150 960 rmoveto
          hintmask 01000000
          -67 callgsubr
          hintmask 10000000
          -104 callsubr
        </CharString>
        <CharString name="uni0326">
          -564 -332 -21 230 -21 63 241 209 -20 hstem
          104 253 -239 250 -136 125 -114 125 vstem
          134 -385 rmoveto
          -101 callgsubr
          -11 callsubr
        </CharString>
        <CharString name="v">
          -38 21 -21 709 140 hstem
          605 hmoveto
          287 709 rlineto
          133 140 -424 -140 117 hlineto
          -192 -500 rlineto
          -36 84 -148 416 0 vvcurveto
          112 140 -457 9 callsubr
          292 -709 rlineto
          endchar
        </CharString>
        <CharString name="w">
          358 21 -21 709 140 hstem
          8 374 124 414 111 374 vstem
          346 hmoveto
          185 hlineto
          178 547 180 -547 rlineto
          185 hlineto
          233 709 rlineto
          98 140 -374 -140 98 hlineto
          -145 -512 -164 512 rlineto
          100 140 -414 -140 101 hlineto
          -156 -508 -157 508 rlineto
          88 140 -374 -140 93 hlineto
          endchar
        </CharString>
        <CharString name="x">
          -24 -46 callgsubr
          hstem
          37 424 97 437 vstem
          461 -10 callgsubr
          -92 vlineto
          139 175 145 -175 rlineto
          -95 -141 437 141 -119 hlineto
          -255 299 226 269 rlineto
          135 140 -413 -140 78 hlineto
          -125 -157 -126 157 rlineto
          80 140 -425 -140 123 hlineto
          237 -280 -245 -288 rlineto
          -129 -17 callgsubr
        </CharString>
        <CharString name="y">
          20 callsubr
          hstem
          -79 callgsubr
          endchar
        </CharString>
        <CharString name="yacute">
          -11 231 0 121 194 endchar
        </CharString>
        <CharString name="ydieresis">
          20 callsubr
          141 34 callgsubr
          210 -8 callgsubr
          hintmask 11000000
          -79 callgsubr
          hintmask 00111000
          -107 506 -92 callgsubr
        </CharString>
        <CharString name="yen">
          161 0 122 175 117 89 119 408 123 hstem
          526 160 vstem
          850 hmoveto
          122 -164 175 274 117 -274 89 274 119 -211 vlineto
          280 408 rlineto
          156 123 -460 -122 150 hlineto
          -257 -392 -274 391 rlineto
          150 123 -472 -121 146 hlineto
          292 -410 rlineto
          -211 -119 277 -89 -277 -117 277 -174 -159 -123 hlineto
          endchar
        </CharString>
        <CharString name="z">
          -8 callsubr
          28 callgsubr
          hintmask 01101100
          25 callgsubr
          hintmask 10101100
          -13 callgsubr
          hintmask 01011100
          3 callgsubr
          endchar
        </CharString>
        <CharString name="zcaron">
          -8 callsubr
          84 6 callgsubr
          28 callgsubr
          hintmask 01100011
          25 callgsubr
          hintmask 10100011
          -13 callgsubr
          hintmask 01010011
          3 callgsubr
          hintmask 00001100
          134 -84 callgsubr
          endchar
        </CharString>
        <CharString name="zero">
          -16 -19 143 967 142 hstem
          86 202 468 202 vstem
          521 -19 rmoveto
          294 143 244 383 383 -143 242 -294 -293 -142 -244 -381 -382 142 -245 293 hvcurveto
          143 vmoveto
          -173 -60 174 309 308 60 176 173 159 76 -140 -343 -341 -74 -143 -161 hvcurveto
          endchar
        </CharString>
      <CharString index="0">
        rmoveto
        213 hlineto
        133 69 -83 -99 -92 -48 -99 -168 hvcurveto
        -199 hlineto
        608 -561 rmoveto
        -242 440 rlineto
        183 46 85 107 162 vvcurveto
        226 -178 93 -245 vhcurveto
        -599 -140 170 -934 -170 -141 548 141 -160 416 160 hlineto
        295 -557 rlineto
        324 -55 callsubr
        return
      </CharString>
      <CharString index="1">
        rmoveto
        -100 callgsubr
        214 -311 rlineto
        479 hmoveto
        -100 callgsubr
        215 -311 rlineto
        endchar
      </CharString>
      <CharString index="2">
        -101 callsubr
        207 hmoveto
        256 -183 186 -269 -87 callgsubr
        274 180 191 252 vhcurveto
        return
      </CharString>
      <CharString index="3">
        720 22 callgsubr
        243 164 -202 -267 -47 callgsubr
        -244 -162 205 259 -49 callgsubr
        hvcurveto
        -1 158 rmoveto
        -50 callgsubr
        -342 232 -284 412 -50 callsubr
        344 -237 283 -410 hvcurveto
        return
      </CharString>
      <CharString index="4">
        hintmask 11100000
        -107 callsubr
        return
      </CharString>
      <CharString index="5">
        443 1075 -107 callgsubr
        return
      </CharString>
      <CharString index="6">
        128 hlineto
        -110 -36 -41 -96 -19 vhcurveto
        -102 vlineto
        196 2 61 98 192 vvcurveto
        45 -7 176 0 vhcurveto
        return
      </CharString>
      <CharString index="7">
        -121 311 rlineto
        -252 hlineto
        return
      </CharString>
      <CharString index="8">
        -62 callsubr
        -187 vlineto
        -365 hmoveto
        -85 callgsubr
        vlineto
        return
      </CharString>
      <CharString index="9">
        rmoveto
        238 vlineto
        196 81 109 207 15 53 -2 -1 1 vhcurveto
        2 180 rlineto
        1 -13 -33 4 -23 hhcurveto
        -142 -103 -53 -156 -70 hvcurveto
        return
      </CharString>
      <CharString index="10">
        -47 callsubr
        hintmask 00111011
        -62 callgsubr
        hintmask 10011011
        -21 callsubr
        hintmask 01011011
        -103 callsubr
        hintmask 00111011
        -76 callsubr
        hintmask 10011011
        -92 callsubr
        hintmask 00000100
        return
      </CharString>
      <CharString index="11">
        594 -10 callgsubr
        -154 934 154 140 -527 -140 154 -934 -154 -6 callgsubr
        return
      </CharString>
      <CharString index="12">
        422 141 -98 callgsubr
        return
      </CharString>
      <CharString index="13">
        rmoveto
        hintmask 00010000
        -98 callsubr
      </CharString>
      <CharString index="14">
        101 -112 rlineto
        61 61 69 33 109 hhcurveto
        104 79 -49 -110 hvcurveto
        -86 vlineto
        return
      </CharString>
      <CharString index="15">
        -99 callgsubr
        endchar
      </CharString>
      <CharString index="16">
        69 86 -69 101 hhcurveto
        98 60 81 132 9 hvcurveto
        -106 hlineto
        -41 -8 -17 -21 -31 hhcurveto
        return
      </CharString>
      <CharString index="17">
        rmoveto
        135 124 103 -124 520 -137 vlineto
        -345 -502 rlineto
        -121 356 -135 -118 -107 339 107 vlineto
        -454 238 rmoveto
        233 344 rlineto
        -344 vlineto
        endchar
      </CharString>
      <CharString index="18">
        -36 callgsubr
        hintmask 00100000
        -91 callgsubr
        hintmask 00001000
        -72 callgsubr
      </CharString>
      <CharString index="19">
        -71 callgsubr
        54 101 hvcurveto
        557 -324 -29 callsubr
        return
      </CharString>
      <CharString index="20">
        -264 -188 -183 -259 -255 180 -188 270 return
      </CharString>
      <CharString index="21">
        127 hlineto
        -97 0 -295 -48 vvcurveto
        -179 82 -109 185 96 91 40 75 88 vhcurveto
        return
      </CharString>
      <CharString index="22">
        -185 187 185 return
      </CharString>
      <CharString index="23">
        1171 -96 callsubr
        return
      </CharString>
      <CharString index="24">
        -107 callgsubr
        endchar
      </CharString>
      <CharString index="25">
        -82 callsubr
        hintmask 00010000
        return
      </CharString>
      <CharString index="26">
        -49 callsubr
        204 339 -19 callgsubr
        -198 345 return
      </CharString>
      <CharString index="27">
        333 -333 470 -333 196 return
      </CharString>
      <CharString index="28">
        545 175 rmoveto
        -198 534 rlineto
        106 140 -451 -140 128 hlineto
        289 -664 rlineto
        69 hlineto
        -31 -104 rlineto
        -136 -43 -41 -11 -96 hhcurveto
        -98 -157 118 hlineto
        241 34 120 220 78 hvcurveto
        259 732 rlineto
        131 140 -432 -140 113 hlineto
        return
      </CharString>
      <CharString index="29">
        -97 vlineto
        154 2 52 85 148 vvcurveto
        212 -203 vlineto
        return
      </CharString>
      <CharString index="30">
        -20 callsubr
        hintmask 10110000
        -78 callgsubr
        return
      </CharString>
      <CharString index="31">
        -495 906 71 198 69 hstem
        99 79 207 79 vstem
        281 1244 -97 callsubr
      </CharString>
      <CharString index="32">
        -70 callgsubr
        -55 callgsubr
        return
      </CharString>
      <CharString index="33">
        126 0 -20 callgsubr
        192 149 171 -9 callsubr
        return
      </CharString>
      <CharString index="34">
        301 1227 -68 callsubr
        -97 -518 5 callgsubr
        return
      </CharString>
      <CharString index="35">
        -71 -94 67 -94 hhcurveto
        -81 -72 -62 -147 -11 hvcurveto
        endchar
      </CharString>
      <CharString index="36">
        141 -450 hlineto
        -73 -64 -79 -49 -81 hhcurveto
        -90 -31 return
      </CharString>
      <CharString index="37">
        0 141 return
      </CharString>
      <CharString index="38">
        -48 59 69 -22 105 hhcurveto
        206 128 102 147 hvcurveto
        360 -556 -125 167 vvcurveto
        61 61 36 98 vhcurveto
        return
      </CharString>
      <CharString index="39">
        -43 -19 151 251 118 220 145 return
      </CharString>
      <CharString index="40">
        76 13 45 43 76 hhcurveto
        return
      </CharString>
      <CharString index="41">
        rmoveto
        -3 15 42 -1 13 hhcurveto
        151 66 68 83 65 -44 42 -73 12 hvcurveto
        17 97 rlineto
        -72 hlineto
        -39 -162 rlineto
        57 -4 32 -20 -35 vvcurveto
        -46 -50 -15 -68 -15 -15 1 3 -17 vhcurveto
        endchar
      </CharString>
      <CharString index="42">
        97 29 52 78 87 vvcurveto
        149 -112 86 -175 -161 -102 -92 -145 -6 vhcurveto
        129 -8 rlineto
        76 3 38 57 100 hhcurveto
        97 48 -56 -74 -102 -64 -34 -156 hvcurveto
        -111 vlineto
        return
      </CharString>
      <CharString index="43">
        -137 709 -40 callsubr
        return
      </CharString>
      <CharString index="44">
        893 7 callgsubr
        708 -339 -29 callsubr
        return
      </CharString>
      <CharString index="45">
        353 -19 rmoveto
        100 78 27 80 104 hvcurveto
        return
      </CharString>
      <CharString index="46">
        239 -120 11 callgsubr
        return
      </CharString>
      <CharString index="47">
        rmoveto
        hintmask 0000001000000000
        -67 callgsubr
        hintmask 0000010000000000
        -104 callsubr
      </CharString>
      <CharString index="48">
        -74 callsubr
        hintmask 1100000100000000
        -11 callsubr
      </CharString>
      <CharString index="49">
        -140 158 -934 -158 -6 callgsubr
        return
      </CharString>
      <CharString index="50">
        205 -19 160 -55 callgsubr
        return
      </CharString>
      <CharString index="51">
        -332 -21 272 241 return
      </CharString>
      <CharString index="52">
        934 140 return
      </CharString>
      <CharString index="53">
        32 callgsubr
        hintmask 11010000
        -96 callgsubr
        hintmask 00100000
        return
      </CharString>
      <CharString index="54">
        203 -70 callgsubr
        295 141 498 140 return
      </CharString>
      <CharString index="55">
        -110 287 hlineto
        311 -287 rlineto
        -84 -141 445 -3 callsubr
        hlineto
        -325 299 313 269 rlineto
        139 140 hlineto
        return
      </CharString>
      <CharString index="56">
        35 35 -23 -64 hvcurveto
        155 hlineto
        180 -114 44 -118 -196 -74 -114 -168 vhcurveto
        -10 callsubr
        return
      </CharString>
      <CharString index="57">
        -407 -236 -281 -345 return
      </CharString>
      <CharString index="58">
        278 174 192 233 return
      </CharString>
      <CharString index="59">
        4 -96 rlineto
        341 -55 callsubr
        return
      </CharString>
      <CharString index="60">
        -271 -171 -194 -237 return
      </CharString>
      <CharString index="61">
        -70 callgsubr
        568 140 return
      </CharString>
      <CharString index="62">
        145 2 39 64 111 hhcurveto
        83 47 -49 -77 -100 -110 -69 -81 -67 hvcurveto
        -117 -97 -119 -115 -203 vvcurveto
        endchar
      </CharString>
      <CharString index="63">
        379 -19 6 callsubr
        158 return
      </CharString>
      <CharString index="64">
        -551 -22 callsubr
        return
      </CharString>
      <CharString index="65">
        156 574 155 return
      </CharString>
      <CharString index="66">
        vstem
        170 1215 rmoveto
        -2 callgsubr
      </CharString>
      <CharString index="67">
        -57 callsubr
        141 return
      </CharString>
      <CharString index="68">
        -53 125 45 -11 77 hhcurveto
        100 83 36 73 65 hvcurveto
        157 vlineto
        -67 -64 -88 -54 -75 hhcurveto
        -58 -44 13 43 -99 hvcurveto
        return
      </CharString>
      <CharString index="69">
        -52 -15 33 85 hvcurveto
        450 203 140 -203 307 vlineto
        -195 -45 rlineto
        -262 -126 -29 callsubr
        return
      </CharString>
      <CharString index="70">
        -525 950 175 hstem
        177 182 -41 callgsubr
      </CharString>
      <CharString index="71">
        rmoveto
        39 6 13 21 35 hhcurveto
        return
      </CharString>
      <CharString index="72">
        148 49 vvcurveto
        3 -48 -146 3 -54 hhcurveto
        500 hmoveto
        -23 callsubr
        return
      </CharString>
      <CharString index="73">
        427 -365 365 -19 callgsubr
        return
      </CharString>
      <CharString index="74">
        225 218 415 219 return
      </CharString>
      <CharString index="75">
        185 218 491 183 return
      </CharString>
      <CharString index="76">
        253 -125 125 return
      </CharString>
      <CharString index="77">
        22 callgsubr
        197 hlineto
        301 123 -198 -268 -270 -119 -198 -313 hvcurveto
        -189 return
      </CharString>
      <CharString index="78">
        119 -117 -21 604 281 33 callgsubr
        return
      </CharString>
      <CharString index="79">
        -3 callgsubr
        -16 callgsubr
        hintmask 1000001000000000
        return
      </CharString>
      <CharString index="80">
        rmoveto
        hintmask 00001000
        -67 callgsubr
        return
      </CharString>
      <CharString index="81">
        140 hstemhm
        return
      </CharString>
      <CharString index="82">
        -26 callgsubr
        31 347 -347 472 -321 196 265 420 -326 195 return
      </CharString>
      <CharString index="83">
        141 568 140 226 -1 callgsubr
        return
      </CharString>
      <CharString index="84">
        96 vlineto
        -154 -1 -53 -84 -148 vvcurveto
        -213 return
      </CharString>
      <CharString index="85">
        1012 145 rmoveto
        -879 -145 879 hlineto
        return
      </CharString>
      <CharString index="86">
        -70 callgsubr
        570 155 return
      </CharString>
      <CharString index="87">
        141 -141 355 return
      </CharString>
      <CharString index="88">
        -198 198 return
      </CharString>
      <CharString index="89">
        271 251 -934 -178 -141 573 141 -176 934 248 vlineto
        return
      </CharString>
      <CharString index="90">
        -19 callsubr
        endchar
      </CharString>
      <CharString index="91">
        131 -661 -123 -103 378 103 hlineto
        return
      </CharString>
      <CharString index="92">
        -46 callgsubr
        160 224 return
      </CharString>
      <CharString index="93">
        470 140 hlineto
        return
      </CharString>
      <CharString index="94">
        -165 -387 vlineto
        539 577 rlineto
        139 -729 -287 146 vlineto
        return
      </CharString>
      <CharString index="95">
        -486 9 callsubr
        -319 -260 rlineto
        766 -347 -29 callsubr
        return
      </CharString>
      <CharString index="96">
        -151 -17 callgsubr
      </CharString>
      <CharString index="97">
        hmoveto
        141 return
      </CharString>
      <CharString index="98">
        347 -347 482 -331 196 return
      </CharString>
      <CharString index="99">
        225 179 224 return
      </CharString>
      <CharString index="100">
        -131 450 hlineto
        173 -90 102 -174 -100 -89 -29 -68 -101 vhcurveto
        return
      </CharString>
      <CharString index="101">
        -141 vlineto
        return
      </CharString>
      <CharString index="102">
        -481 -196 133 558 143 557 133 hstemhm
        31 return
      </CharString>
      <CharString index="103">
        -137 708 -40 callsubr
        return
      </CharString>
      <CharString index="104">
        451 rmoveto
        764 -270 -103 vlineto
        return
      </CharString>
      <CharString index="105">
        -85 callgsubr
        vlineto
        endchar
      </CharString>
      <CharString index="106">
        -26 callgsubr
        35 346 -346 456 -305 195 return
      </CharString>
      <CharString index="107">
        hlineto
        1 89 26 30 70 15 rrcurveto
        return
      </CharString>
      <CharString index="108">
        -140 -26 callgsubr
        return
      </CharString>
      <CharString index="109">
        rmoveto
        -569 vlineto
        return
      </CharString>
      <CharString index="110">
        153 349 vlineto
        -535 -580 rlineto
        -135 vlineto
        return
      </CharString>
      <CharString index="111">
        hstemhm
        63 482 -356 198 149 155 return
      </CharString>
      <CharString index="112">
        rmoveto
        -568 vlineto
        return
      </CharString>
      <CharString index="113">
        -21 259 -20 return
      </CharString>
      <CharString index="114">
        141 rmoveto
        return
      </CharString>
      <CharString index="115">
        169 -995 hlineto
        -90 -19 -73 -108 vhcurveto
        return
      </CharString>
      <CharString index="116">
        -64 callgsubr
        endchar
      </CharString>
      <CharString index="117">
        -21 820 -20 hstem
        return
      </CharString>
      <CharString index="118">
        120 hstemhm
        return
      </CharString>
      <CharString index="119">
        887 849 rmoveto
        -163 hlineto
        1 -80 return
      </CharString>
      <CharString index="120">
        hlineto
        207 -410 -207 -410 rlineto
        return
      </CharString>
      <CharString index="121">
        rmoveto
        95 hlineto
        -3 -20 callsubr
        return
      </CharString>
      <CharString index="122">
        rmoveto
        -245 254 245 vlineto
        endchar
      </CharString>
      <CharString index="123">
        498 -445 445 return
      </CharString>
      <CharString index="124">
        -141 482 141 return
      </CharString>
      <CharString index="125">
        569 140 return
      </CharString>
      <CharString index="126">
        221 219 return
      </CharString>
      <CharString index="127">
        -498 935 -21 257 -20 hstem
        return
      </CharString>
      <CharString index="128">
        189 -245 -118 -87 -36 -80 return
      </CharString>
      <CharString index="129">
        1075 rmoveto
        return
      </CharString>
      <CharString index="130">
        195 endchar
      </CharString>
      <CharString index="131">
        123 282 150 -107 107 return
      </CharString>
      <CharString index="132">
        828 hmoveto
        298 -151 vlineto
        return
      </CharString>
      <CharString index="133">
        215 311 rlineto
        -253 hlineto
        return
      </CharString>
      <CharString index="134">
        -342 156 895 140 return
      </CharString>
      <CharString index="135">
        hstemhm
        100 146 431 151 return
      </CharString>
      <CharString index="136">
        hstemhm
        -36 callsubr
        return
      </CharString>
      <CharString index="137">
        -214 hvcurveto
        -138 hlineto
        endchar
      </CharString>
      <CharString index="138">
        rlineto
        143 140 return
      </CharString>
      <CharString index="139">
        hstemhm
        19 callgsubr
        return
      </CharString>
      <CharString index="140">
        -137 137 return
      </CharString>
      <CharString index="141">
        217 hstemhm
        return
      </CharString>
</ttFont>
